<svg id="Layer_1" enable-background="new 0 0 256 256" height="512" viewBox="0 0 256 256" width="512" xmlns="http://www.w3.org/2000/svg"><g><g><path d="m242 218.288h-228c-5.523 0-10-4.477-10-10v-160.576c0-5.523 4.477-10 10-10h228c5.523 0 10 4.477 10 10v160.576c0 5.523-4.477 10-10 10z" fill="#f4efed"/></g><g><path d="m242 37.712h-9c5.523 0 10 4.477 10 10v160.575c0 5.523-4.477 10-10 10h9c5.523 0 10-4.477 10-10v-160.575c0-5.523-4.477-10-10-10z" fill="#d6d1cf"/></g><g><path d="m14 218.288h9c-5.523 0-10-4.477-10-10v-160.576c0-5.523 4.477-10 10-10h-9c-5.523 0-10 4.477-10 10v160.575c0 5.523 4.477 10.001 10 10.001z" fill="#fff"/></g><g><path d="m20.989 189.476h168.844v18.213h-168.844z" fill="#526faa"/></g><g><path d="m20.989 55.615h94.766v112.899h-94.766z" fill="#fcc24c"/></g><g><path d="m115.755 170.515h-94.766c-1.104 0-2-.896-2-2v-112.9c0-1.104.896-2 2-2h94.766c1.104 0 2 .896 2 2v112.899c0 1.105-.895 2.001-2 2.001zm-92.766-4h90.766v-108.9h-90.766z" fill="#690589"/></g><g><path d="m225.756 207.69-10.41-10-10.409 10v-42.176h20.819z" fill="#526faa"/></g><g><path d="m225.757 209.689c-.507 0-1.006-.192-1.386-.558l-9.024-8.669-9.024 8.669c-.579.556-1.433.712-2.17.397-.738-.314-1.216-1.038-1.216-1.84v-42.175c0-1.104.896-2 2-2h20.82c1.105 0 2 .896 2 2v42.175c0 .802-.479 1.525-1.216 1.84-.253.109-.52.161-.784.161zm-10.411-14c.499 0 .999.186 1.386.558l7.024 6.748v-35.48h-16.82v35.48l7.024-6.748c.388-.372.887-.558 1.386-.558z" fill="#690589"/></g><g><ellipse cx="215.346" cy="161.032" fill="#fcc24c" rx="20.634" ry="20.634" transform="matrix(.922 -.388 .388 .922 -45.578 96.041)"/></g><g><path d="m215.346 183.665c-12.48 0-22.634-10.153-22.634-22.634 0-12.48 10.153-22.634 22.634-22.634s22.634 10.153 22.634 22.634-10.153 22.634-22.634 22.634zm0-41.267c-10.275 0-18.634 8.359-18.634 18.634 0 10.274 8.359 18.634 18.634 18.634s18.634-8.359 18.634-18.634-8.359-18.634-18.634-18.634z" fill="#690589"/></g><g><path d="m215.346 174.158c-7.238 0-13.126-5.889-13.126-13.127s5.889-13.127 13.126-13.127c7.238 0 13.127 5.889 13.127 13.127.001 7.239-5.889 13.127-13.127 13.127zm0-22.254c-5.032 0-9.126 4.095-9.126 9.127s4.094 9.127 9.126 9.127c5.033 0 9.127-4.095 9.127-9.127.001-5.032-4.094-9.127-9.127-9.127z" fill="#690589"/></g><g><path d="m242 220.288h-228c-6.617 0-12-5.383-12-12v-160.576c0-6.617 5.383-12 12-12h228c6.617 0 12 5.383 12 12v160.576c0 6.617-5.383 12-12 12zm-228-180.576c-4.411 0-8 3.589-8 8v160.576c0 4.411 3.589 8 8 8h228c4.411 0 8-3.589 8-8v-160.576c0-4.411-3.589-8-8-8z" fill="#690589"/></g><g><path d="m59.116 132.532v-17.449h18.596v17.449h16.791c6.504.008 11.77 5.349 11.762 11.853v24.129h-75.785v-24.226c.008-6.504 5.319-11.77 11.823-11.762z" fill="#f4efed"/></g><g><path d="m43.456 168.514h49.832v-35.982h-15.576v-17.449h-18.596v17.449l-15.66-.005z" fill="#526faa"/></g><g><path d="m59.116 115.083h18.596v20.856c0 5.135-4.163 9.298-9.298 9.298-5.135 0-9.298-4.163-9.298-9.298z" fill="#ff9f70"/></g><g><path d="m93.288 170.515h-49.832c-1.104 0-2-.896-2-2v-35.987c0-.53.211-1.039.586-1.414s.884-.586 1.414-.586h.001l13.659.004v-15.448c0-1.104.896-2 2-2h18.596c1.104 0 2 .896 2 2v15.449h13.576c1.104 0 2 .896 2 2v35.982c0 1.104-.895 2-2 2zm-47.832-4h45.832v-31.982h-13.576c-1.104 0-2-.895-2-2v-15.449h-14.596v15.449c0 .53-.211 1.039-.586 1.414s-.884.586-1.414.586l-13.659-.004v31.986z" fill="#690589"/></g><g><path d="m106.265 170.515h-75.785c-1.105 0-2-.896-2-2v-24.227c.01-7.593 6.203-13.762 13.808-13.762h.017l14.811.005v-15.448c0-1.104.896-2 2-2h18.596c1.104 0 2 .896 2 2v15.449h14.79c3.681.005 7.141 1.454 9.744 4.083 2.596 2.621 4.022 6.091 4.018 9.772v24.127c.001 1.105-.895 2.001-1.999 2.001zm-73.785-4h71.785v-22.13c.003-2.62-1.012-5.09-2.86-6.955-1.847-1.865-4.299-2.895-6.904-2.898h-16.789c-1.104 0-2-.895-2-2v-15.449h-14.596v15.449c0 .53-.211 1.039-.586 1.414s-.884.586-1.414.586l-16.813-.006c-.004 0-.008 0-.012 0-5.404 0-9.803 4.378-9.81 9.765v22.224z" fill="#690589"/></g><g><path d="m68.414 147.237c-6.229 0-11.298-5.068-11.298-11.299v-20.856c0-1.104.896-2 2-2h18.596c1.104 0 2 .896 2 2v20.856c0 6.231-5.068 11.299-11.298 11.299zm-7.298-30.154v18.856c0 4.024 3.274 7.299 7.298 7.299s7.298-3.274 7.298-7.299v-18.856z" fill="#690589"/></g><g><path d="m85.523 80.908v-.71c0-2.977-1.81-5.531-4.389-6.622-2.94-1.244-5.797-2.676-8.408-4.513l-4.348-3.06v-.007l-.005.004-.005-.004v.007l-4.348 3.06c-2.61 1.837-5.467 3.27-8.407 4.513-2.579 1.091-4.389 3.645-4.389 6.622v.71c-4.191 0-7.493 3.571-7.165 7.749l1.224 15.59h23.086.011 23.086l1.224-15.59c.325-4.178-2.976-7.749-7.167-7.749z" fill="#690589"/></g><g><path d="m91.463 106.247h-46.182c-1.044 0-1.912-.803-1.994-1.844l-1.224-15.59c-.2-2.546.679-5.081 2.413-6.956 1.289-1.394 2.978-2.346 4.809-2.742.383-3.255 2.475-6.082 5.547-7.381 3.276-1.387 5.83-2.756 8.035-4.308l4.261-2.999c.102-.08.213-.151.331-.212.333-.169.702-.241 1.057-.214.263.018.523.088.766.212.122.062.235.136.34.219l4.255 2.994c2.206 1.553 4.759 2.922 8.035 4.308 3.072 1.299 5.164 4.126 5.546 7.381 1.831.397 3.52 1.349 4.809 2.742 1.733 1.875 2.613 4.41 2.413 6.956l-1.224 15.59c-.081 1.041-.949 1.844-1.993 1.844zm-44.333-4h42.484l1.079-13.746c.114-1.459-.37-2.854-1.363-3.928s-2.346-1.666-3.809-1.666c-1.104 0-2-.896-2-2v-.71c0-2.089-1.244-3.965-3.168-4.779-3.545-1.5-6.334-2.999-8.779-4.72l-3.203-2.254-3.203 2.254c-2.444 1.72-5.233 3.22-8.779 4.72-1.925.814-3.168 2.69-3.168 4.779v.71c0 1.104-.896 2-2 2-1.463 0-2.816.592-3.808 1.665-.993 1.074-1.477 2.47-1.363 3.929z" fill="#690589"/></g><g><path d="m49.957 99.165h-1.316c-3.402 0-6.16 2.758-6.16 6.16s2.758 6.16 6.16 6.16h1.316z" fill="#ff9f70"/></g><g><path d="m88.138 99.165h-1.316v12.32h1.316c3.402 0 6.16-2.758 6.16-6.16s-2.758-6.16-6.16-6.16z" fill="#ff9f70"/></g><g><path d="m68.389 130.478c-10.18 0-18.432-8.36-18.432-18.672v-12.926c0-10.312 8.252-18.672 18.432-18.672 10.18 0 18.433 8.36 18.433 18.672v12.927c0 10.312-8.252 18.671-18.433 18.671z" fill="#ff9f70"/></g><g><path d="m68.39 132.479c-11.267 0-20.433-9.273-20.433-20.672v-12.927c0-11.398 9.166-20.672 20.433-20.672s20.433 9.273 20.433 20.672v12.927c-.001 11.398-9.167 20.672-20.433 20.672zm0-50.271c-9.061 0-16.433 7.479-16.433 16.672v12.927c0 9.193 7.372 16.672 16.433 16.672s16.433-7.479 16.433-16.672v-12.927c-.001-9.193-7.372-16.672-16.433-16.672z" fill="#690589"/></g><g><path d="m49.957 113.484h-1.316c-4.5 0-8.16-3.66-8.16-8.16 0-4.499 3.661-8.159 8.16-8.159h1.316c1.104 0 2 .896 2 2v12.319c0 1.105-.896 2-2 2zm-2-12.262c-1.97.327-3.476 2.042-3.476 4.103s1.506 3.776 3.476 4.103z" fill="#690589"/></g><g><path d="m88.138 113.484h-1.316c-1.105 0-2-.896-2-2v-12.319c0-1.104.895-2 2-2h1.316c4.499 0 8.16 3.66 8.16 8.159 0 4.5-3.661 8.16-8.16 8.16zm.684-12.262v8.206c1.969-.327 3.476-2.043 3.476-4.103 0-2.061-1.507-3.776-3.476-4.103z" fill="#690589"/></g><g><path d="m68.414 170.515c-1.104 0-2-.896-2-2v-23.277c0-1.105.896-2 2-2s2 .895 2 2v23.277c0 1.104-.895 2-2 2z" fill="#690589"/></g><g><path d="m61.64 170.515h-12.446c-1.104 0-2-.896-2-2v-9.955c0-1.105.896-2 2-2h12.446c1.105 0 2 .895 2 2v9.955c0 1.104-.896 2-2 2zm-10.446-4h8.446v-5.955h-8.446z" fill="#690589"/></g><g><path d="m87.551 170.515h-12.446c-1.105 0-2-.896-2-2v-9.955c0-1.105.895-2 2-2h12.446c1.104 0 2 .895 2 2v9.955c0 1.104-.896 2-2 2zm-10.446-4h8.446v-5.955h-8.446z" fill="#690589"/></g><g><path d="m70.195 65.994h-3.611c-13.312 0-24.103 10.791-24.103 24.103 0 1.142.925 2.067 2.067 2.067h47.683c1.142 0 2.067-.925 2.067-2.067 0-13.311-10.791-24.103-24.103-24.103z" fill="#f4efed"/></g><g><path d="m92.231 94.165h-47.683c-2.243 0-4.067-1.824-4.067-4.067 0-14.394 11.71-26.104 26.103-26.104h3.611c14.393 0 26.103 11.71 26.103 26.104 0 2.243-1.824 4.067-4.067 4.067zm-25.647-26.171c-12.188 0-22.103 9.916-22.103 22.104l47.75.067c.067-12.255-9.849-22.171-22.036-22.171z" fill="#690589"/></g><g><path d="m82.408 97.96c-9.213-2.069-18.77-2.072-27.984-.008l-.057.013c-3.44.77-6.707-1.846-6.707-5.371v-.007c0-2.575 1.785-4.806 4.298-5.37l2.408-.541c9.213-2.07 18.77-2.073 27.984-.009l2.467.552c2.514.563 4.301 2.795 4.301 5.371.001 3.526-3.269 6.143-6.71 5.37z" fill="#526faa"/></g><g><path d="m83.627 100.096c-.551 0-1.106-.061-1.657-.185-8.867-1.992-18.241-1.994-27.107-.008-2.295.515-4.6-.02-6.388-1.452s-2.813-3.566-2.813-5.857c0-3.543 2.409-6.555 5.859-7.329l2.409-.54c9.438-2.122 19.417-2.123 28.858-.011l2.467.554c3.453.771 5.864 3.783 5.864 7.322 0 2.291-1.026 4.427-2.814 5.858-1.349 1.079-2.993 1.648-4.678 1.648zm-15.248-12.965c-4.568 0-9.134.498-13.575 1.496l-2.409.54c-1.61.362-2.735 1.769-2.735 3.42 0 1.076.479 2.073 1.314 2.742.834.668 1.913.915 2.956.685 9.497-2.128 19.476-2.126 28.916-.005h-.001c1.044.233 2.123-.015 2.958-.684s1.314-1.665 1.314-2.735c0-1.652-1.126-3.058-2.738-3.419l-2.468-.554c-4.425-.991-8.979-1.486-13.532-1.486z" fill="#690589"/></g><g><path d="m84.756 160.56c-1.104 0-2-.896-2-2v-26.027c0-1.104.896-2 2-2s2 .896 2 2v26.027c0 1.104-.896 2-2 2z" fill="#690589"/></g><g><path d="m51.989 160.56c-1.104 0-2-.896-2-2v-26.027c0-1.104.896-2 2-2s2 .896 2 2v26.027c0 1.104-.896 2-2 2z" fill="#690589"/></g><g><path d="m229.98 57.615h-93.097c-1.105 0-2-.896-2-2s.895-2 2-2h93.097c1.104 0 2 .896 2 2s-.896 2-2 2z" fill="#690589"/></g><g><path d="m229.98 82.208h-93.097c-1.105 0-2-.896-2-2s.895-2 2-2h93.097c1.104 0 2 .896 2 2s-.896 2-2 2z" fill="#690589"/></g><g><path d="m229.98 106.801h-93.097c-1.105 0-2-.896-2-2s.895-2 2-2h93.097c1.104 0 2 .896 2 2s-.896 2-2 2z" fill="#690589"/></g><g><path d="m183.432 131.393h-46.549c-1.105 0-2-.895-2-2 0-1.104.895-2 2-2h46.549c1.104 0 2 .896 2 2s-.896 2-2 2z" fill="#690589"/></g><g><path d="m189.833 209.689h-168.844c-1.104 0-2-.896-2-2v-18.213c0-1.104.896-2 2-2h168.844c1.104 0 2 .896 2 2v18.213c0 1.105-.896 2-2 2zm-166.844-4h164.844v-14.213h-164.844z" fill="#690589"/></g><g><path d="m13 85.099c-1.105 0-2-.896-2-2v-12c0-1.104.895-2 2-2 1.104 0 2 .896 2 2v12c0 1.104-.896 2-2 2z" fill="#690589"/></g></g></svg>