<svg id="Layer_1" height="512" viewBox="0 0 322.9951 237.3484" width="512" xmlns="http://www.w3.org/2000/svg"><g><path d="m134.024 133.987h56.881v4h-56.881z"/><path d="m121.5972 146.709h7.3335v8.8333h5.4165v80.2948h6.5v-12.17h89.9265v12.17h6.5v-80.2948h5.417v-8.8333h7.333v-5h-128.4265z"/><circle cx="105.255" cy="64.965" r="22.5"/><path d="m125.3501 217.7752-8.0918-61.4102c-.8198-6.2188-6.1206-10.8672-12.3931-10.8672h-32.0506c1.5312-8.0673 4.1268-16.1401 6.8111-23.5399l-15.3199-11.5809c-4.5303-3.4253-5.4307-9.8975-2.0059-14.4277 1.9648-2.5991 4.9619-4.0898 8.2227-4.0898 2.2559 0 4.4023.7207 6.2061 2.0845l10.2785 7.7703c1.6527-8.1138-.7333-16.6901-7.2339-19.5128-8.0699-3.5059-21.0396-.9704-28.4174 12.6429-10.0342 18.7778-13.6396 31.4883-14.7474 53.8259.4344 16.397 11.0468 19.844 20.105 21.2377 2.6268.4047 4.8419.6641 6.7029.4938.488.0579.9819.0962 1.4855.0962h29.0024l6.6597 50.543c.8291 6.291 6.1997 10.8691 12.3774 10.8682.5439 0 1.0947-.0352 1.6484-.1084 6.8448-.9016 11.6622-7.1809 10.7603-14.0256z"/><path d="m78.5366 183.2227 6.3213.0271.0254-6-54.436-.2334c-3.9702-.0166-7.397-2.585-8.5273-6.3916l-16.168-54.4365-5.752 1.709 16.168 54.4365c1.7664 5.9478 6.8898 10.0857 12.9727 10.6218-2.7299.4424-5.002 2.3765-5.8467 5.0891l-14.1807 45.54 3.8193 1.1895 14.1807-45.54c.4424-1.4209 1.7388-2.375 3.2266-2.375h45.917c1.6616 0 3.064 1.1895 3.335 2.8291l7.4028 44.8174 3.9463-.6523-7.4028-44.8174c-.4619-2.7952-2.4334-4.985-5.0016-5.8133z"/><path d="m144.1701 113.5625c-.0616 0-.1227-.0122-.1843-.0133 1.2756 1.548 3.3498 2.1854 5.2676 1.6452l3.5317 6.3898-6.5039 3.5947 1.8373 3.3242 15.0312-8.3078-1.8373-3.3242-6.5039 3.5947-3.5316-6.3898c1.4264-1.2901 1.999-3.2872 1.4685-5.1371-1.8779 2.8161-5.0852 4.6236-8.5753 4.6236z"/><path d="m64.1349 97.3359c-2.6641 3.5244-1.9668 8.5415 1.5576 11.2061l36.9902 27.9634c1.4336 1.0835 3.1309 1.6187 4.8223 1.6187 1.9678 0 3.9277-.7236 5.4561-2.1479l27.3721-25.5073 1.5625.4629c4.2363 1.2534 8.6875-1.1621 9.9424-5.3975 1.2559-4.2363-1.1611-8.688-5.3975-9.9434l-5.9453-1.7617c-2.7158-.8047-5.6533-.1133-7.7266 1.8179l-25.7988 24.042-31.6289-23.9108c-3.5244-2.665-8.542-1.9673-11.2061 1.5576z"/><path d="m200.6543 91.9814c19.0501-.5889 34.3153-16.2062 34.3153-35.3993 0-19.566-15.8615-35.4274-35.4274-35.4274-19.566 0-35.4274 15.8615-35.4274 35.4274 0 19.2682 15.3851 34.9323 34.5396 35.405v8.6993l-13.7955 15.9348c-.095-.0546-.1783-.124-.2772-.1731-1.2656-.6299-2.7017-.7266-4.042-.2764-1.3398.4502-2.4243 1.3965-3.0532 2.6631-1.2983 2.6133-.2275 5.7969 2.3862 7.0947.7544.375 1.5562.5518 2.3462.5518 1.9482 0 3.8262-1.0781 4.7495-2.9385.6289-1.2656.7271-2.7012.2764-4.042-.1961-.5829-.5012-1.1054-.8704-1.5751l14.2801-16.4933v-9.451zm-15.4771 30.6727c-.3916.7871-1.0659 1.376-1.8999 1.6562-.8345.2812-1.7275.2197-2.5151-.1719-1.6265-.8076-2.2925-2.7881-1.4849-4.415.3916-.7871 1.0659-1.376 1.8999-1.6562.3447-.1162.6992-.1738 1.0527-.1738.5015 0 1 .1162 1.4619.3457 1.6266.8076 2.2931 2.7881 1.4854 4.415zm-1.3457-44.7397c-3.9432-15.46-8.6688-14.8027-8.6688-14.8027s4.131-3.286 5.6332-3.3799c1.5021-.0939 5.4454 6.9789 6.2903 9.4199.845 2.441 10.5206-18.035 31.332-31.9928 0 0 2.5975-1.3457.0939.9702-5.5317 5.1169-24.2926 24.8303-28.8596 39.7228-1.4397 4.6942-5.1617 2.6474-5.821.0625z"/><circle cx="274.145" cy="22.5" r="22.5"/><path d="m290.1666 46.7311c-8.5351 2.1269-12.289 14.039-9.4199 23.9921 1.1979 6.1185 2.8007 13.399 4.033 21.0924l2.0352-24.6176c.4453-5.3882 4.8564-9.4512 10.2598-9.4512.2812 0 .5645.0112.8506.0347 2.7451.2266 5.2344 1.5078 7.0127 3.6069s2.6328 4.7651 2.4062 7.5068l-3.3438 40.4561c-.1494 1.814-.7803 3.562-1.8242 5.0552l-20.78 29.7049-4.7463 20.1725c-.2949 1.2559-.3945 2.5498-.2944 3.835l4.5 57.7002c.5112 6.5527 5.9863 11.5293 12.4487 11.5293.3262 0 .6548-.0127.9854-.0391 6.8828-.5361 12.0273-6.5508 11.4907-13.4336l-4.3491-55.7598 7.6143-32.36c5.7475-1.8697 10.7939-6.2884 12.7501-16.355 2.586-22.2149 1.1231-35.3457-5.6816-55.5196-5.0353-14.6423-17.4103-19.2791-25.9474-17.1502z"/><path d="m300.2915 113.0887c.8115-1.1606 1.3008-2.5156 1.417-3.9268l3.3438-40.4561c.3643-4.4033-2.9102-8.2681-7.3135-8.6318-4.4238-.3599-8.2676 2.9111-8.6318 7.3135l-3.166 38.3013-24.5225 35.0537c-2.5322 3.6206-1.6504 8.6083 1.9697 11.1411 1.3965.9766 2.9951 1.4453 4.5791 1.4453 2.5225 0 5.0059-1.1904 6.5625-3.4146z"/></g></svg>