<svg height="512" viewBox="0 0 512 512" width="512" xmlns="http://www.w3.org/2000/svg"><g id="flat"><path d="m317.633 56.851h-123.263a51.19 51.19 0 0 0 -51.134 51.129v38.454h33.724v-38.454a17.425 17.425 0 0 1 17.41-17.4h123.263a17.424 17.424 0 0 1 17.409 17.405v38.454h33.725v-38.459a51.191 51.191 0 0 0 -51.134-51.129z" fill="#1fc091"/><rect fill="#008d67" height="317.092" rx="24.215" width="496" x="8" y="138.057"/><path d="m479.785 138.057h-430.095v251.358a40.709 40.709 0 0 0 40.71 40.709h413.6v-267.852a24.214 24.214 0 0 0 -24.215-24.215z" fill="#019f74"/><path d="m345.36 264.822h-57.654v-57.641h-63.412v57.641h-57.654v63.413h57.654v57.653h63.412v-57.653h57.654z" fill="#fff"/><path d="m317.637 56.851h-123.267a50.9 50.9 0 0 0 -32.93 12.057 50.789 50.789 0 0 0 -5.893 23.79v26.2a12.251 12.251 0 0 0 12.253 12.253h9.161v-23.171a17.429 17.429 0 0 1 12.38-16.658c.706-8.957 8.2-9.933 17.34-9.933h112.594a28.078 28.078 0 0 1 28.078 28.078v9.433a12.252 12.252 0 0 0 12.253 12.252h9.161v-23.172a51.13 51.13 0 0 0 -51.13-51.129z" fill="#4fd79c"/></g><g id="outline"><path d="m345.36 256.822h-49.653v-49.641a8 8 0 0 0 -8-8h-63.414a8 8 0 0 0 -8 8v49.641h-49.653a8 8 0 0 0 -8 8v63.413a8 8 0 0 0 8 8h49.653v49.653a8 8 0 0 0 8 8h63.414a8 8 0 0 0 8-8v-49.653h49.653a8 8 0 0 0 8-8v-63.413a8 8 0 0 0 -8-8zm-8 63.413h-49.653a8 8 0 0 0 -8 8v49.653h-47.414v-49.653a8 8 0 0 0 -8-8h-49.653v-47.413h49.653a8 8 0 0 0 8-8v-49.641h47.414v49.641a8 8 0 0 0 8 8h49.653z"/><path d="m479.785 130.057h-103.018v-22.077a59.2 59.2 0 0 0 -59.134-59.129h-123.263a59.2 59.2 0 0 0 -59.134 59.129v22.077h-103.021a32.251 32.251 0 0 0 -32.215 32.214v268.664a32.251 32.251 0 0 0 32.215 32.214h447.57a32.251 32.251 0 0 0 32.215-32.214v-268.664a32.251 32.251 0 0 0 -32.215-32.214zm-328.549-22.077a43.18 43.18 0 0 1 43.134-43.129h123.263a43.181 43.181 0 0 1 43.134 43.129v22.077h-17.725v-22.077a25.436 25.436 0 0 0 -25.409-25.4h-12.7a8 8 0 0 0 0 16h12.7a9.418 9.418 0 0 1 9.409 9.405v22.077h-142.082v-22.082a9.418 9.418 0 0 1 9.41-9.405h88.508a8 8 0 0 0 0-16h-88.508a25.437 25.437 0 0 0 -25.41 25.405v22.077h-17.724zm344.764 322.955a16.233 16.233 0 0 1 -16.215 16.214h-447.57a16.233 16.233 0 0 1 -16.215-16.214v-268.664a16.233 16.233 0 0 1 16.215-16.214h447.57a16.233 16.233 0 0 1 16.215 16.214z"/></g></svg>