<?xml version="1.0" encoding="iso-8859-1"?>
<!-- Generator: Adobe Illustrator 19.0.0, SVG Export Plug-In . SVG Version: 6.00 Build 0)  -->
<svg version="1.1" id="Capa_1" xmlns="http://www.w3.org/2000/svg" xmlns:xlink="http://www.w3.org/1999/xlink" x="0px" y="0px"
	 viewBox="0 0 496 496" style="enable-background:new 0 0 496 496;" xml:space="preserve">
<g>
	<path style="fill:#EABD8C;" d="M416,152h-4.6c-15.136,0-27.4,12.264-27.4,27.4l0,0c0,8,3.496,15.6,9.568,20.8L440,240v-45.336
		c0-6.92-2.248-13.664-6.4-19.2L416,152z"/>
	<path style="fill:#EABD8C;" d="M80,152h4.6c15.136,0,27.4,12.264,27.4,27.4l0,0c0,8-3.496,15.6-9.568,20.8L56,240v-45.336
		c0-6.92,2.248-13.664,6.4-19.2L80,152z"/>
</g>
<g>
	<path style="fill:#F9E0A6;" d="M56,286.312v-89.056c0-8.488,3.368-16.624,9.376-22.624l32.208-32.208
		c4.104-4.112,6.416-9.688,6.416-15.504v-1c0-12.104-9.816-21.92-21.92-21.92h-1c-5.816,0-11.392,2.312-15.496,6.416l-34.152,34.152
		C16.432,159.568,8,179.92,8,201.136v181.136c0,11.6,3.152,22.984,9.12,32.928L32,440h88v-40l0,0c10.432-15.648,16-34.04,16-52.848
		V288c0-13.256-10.744-24-24-24l0,0c-13.256,0-24,10.744-24,24v56l-26.624-39.936C57.872,298.808,56,292.632,56,286.312z"/>
	<path style="fill:#F9E0A6;" d="M408,344v-56c0-13.256-10.744-24-24-24l0,0c-13.256,0-24,10.744-24,24v59.152
		c0,18.808,5.568,37.192,16,52.848l0,0v40h88l14.88-24.8c5.968-9.944,9.12-21.328,9.12-32.928V201.136
		c0-21.216-8.432-41.568-23.432-56.568l-34.152-34.152c-4.104-4.104-9.68-6.416-15.496-6.416h-1c-12.104,0-21.92,9.816-21.92,21.92
		v1c0,5.816,2.312,11.392,6.416,15.496l32.208,32.208c6,6,9.376,14.144,9.376,22.624v89.056c0,6.32-1.872,12.496-5.376,17.752
		L408,344z"/>
</g>
<polygon style="fill:#ECECEC;" points="168,328 136,328 88,328 88,8 408,8 408,328 360,328 328,328 "/>
<rect x="88" y="312" style="fill:#B6C1CE;" width="320" height="16"/>
<g>
	<polygon style="fill:#FB5968;" points="296,360 336,448 304,440 288,472 247.432,383.432 	"/>
	<polygon style="fill:#FB5968;" points="200,360 160,448 192,440 208,472 248.568,383.432 	"/>
</g>
<g>
	<path style="fill:#CD2C5A;" d="M200,360l-11.936,26.264c7.648,4.936,16.56,7.608,25.904,7.608c0.032,0,0.064,0,0.096,0
		c6.512,6.568,14.752,11.056,23.76,13.008l10.744-23.456L200,360z"/>
	<path style="fill:#CD2C5A;" d="M296,360l-48.568,23.432l10.744,23.456c9.008-1.952,17.248-6.44,23.76-13.008
		c0.032,0,0.096,0,0.096,0c9.344,0,18.256-2.672,25.904-7.608L296,360z"/>
</g>
<path style="fill:#FB5968;" d="M328,312c0-11.368-5.968-21.288-14.904-26.968c2.304-10.328-0.496-21.568-8.528-29.6
	c-8.04-8.04-19.272-10.832-29.6-8.528C269.288,237.968,259.368,232,248,232s-21.288,5.968-26.968,14.904
	c-10.328-2.304-21.568,0.496-29.6,8.528c-8.04,8.04-10.832,19.272-8.528,29.6C173.968,290.712,168,300.632,168,312
	c0,11.368,5.968,21.288,14.904,26.968c-2.304,10.328,0.496,21.568,8.528,29.6c8.04,8.04,19.272,10.832,29.6,8.528
	C226.712,386.032,236.632,392,248,392c11.368,0,21.288-5.968,26.968-14.904c10.328,2.304,21.568-0.496,29.6-8.528
	c8.04-8.04,10.832-19.272,8.528-29.6C322.032,333.288,328,323.368,328,312z"/>
<path style="fill:#F9E0A6;" d="M112,264c-13.256,0-24,10.744-24,24v40h48v-40C136,274.744,125.256,264,112,264z"/>
<g>
	<polygon style="fill:#EABD8C;" points="22.4,424 32,448 120,448 120,424 	"/>
	<polygon style="fill:#EABD8C;" points="473.6,424 464,448 376,448 376,424 	"/>
</g>
<path style="fill:#F9E0A6;" d="M408,288c0-13.256-10.744-24-24-24s-24,10.744-24,24v40h48V288z"/>
<circle style="fill:#FFC729;" cx="248" cy="312" r="32"/>
<g>
	<rect x="120" y="40" style="fill:#92E0C0;" width="256" height="64"/>
	<rect x="8" y="440" style="fill:#92E0C0;" width="128" height="48"/>
	<rect x="360" y="440" style="fill:#92E0C0;" width="128" height="48"/>
</g>
<g>
	<rect x="8" y="472" style="fill:#48C397;" width="128" height="16"/>
	<rect x="360" y="472" style="fill:#48C397;" width="128" height="16"/>
</g>
<path d="M496,382.272V201.136c0-23.504-9.152-45.6-25.776-62.224l-34.152-34.152c-5.392-5.392-12.496-8.384-20.072-8.656V0H80
	v96.104c-7.584,0.272-14.688,3.264-20.072,8.656l-34.152,34.152C9.152,155.536,0,177.632,0,201.136v181.136
	c0,13.048,3.544,25.856,10.264,37.04L17.872,432H0v64h144v-64h-16v-29.632c10.48-16.544,16-35.584,16-55.216V336h24v-0.088
	c1.816,2.416,3.904,4.648,6.272,6.624c-0.872,9.912,1.976,19.68,7.96,27.552l-35.392,89.448l40.88-10.224l21.096,42.192
	l36.664-91.648c0.832,0.056,1.672,0.144,2.52,0.144c0.848,0,1.688-0.088,2.528-0.136l36.664,91.648l21.096-42.192l40.88,10.224
	l-35.392-89.448c5.984-7.872,8.832-17.64,7.952-27.552c2.36-1.976,4.448-4.208,6.272-6.624V336h24v11.16
	c0,19.632,5.52,38.664,16,55.216V432h-16v64h144v-64h-17.872l7.608-12.68C492.456,408.128,496,395.32,496,382.272z M416,288v-58.032
	l16,13.712v39.064c0,6.32-2.56,12.496-7.024,16.968L416,308.688V288z M432,222.608l-16-13.712V171.32l8.976,8.976
	c4.464,4.456,7.024,10.64,7.024,16.96V222.608z M80,208.888L64,222.6v-25.352c0-6.32,2.56-12.496,7.024-16.968L80,171.312V208.888z
	 M64,243.68l16-13.712V288v20.688l-8.976-8.976C66.56,295.248,64,289.064,64,282.744V243.68z M128,480H16v-32h112V480z M128,347.16
	c0,17.288-5.064,34.024-14.656,48.408L112,397.576V432H36.528l-12.552-20.92C18.76,402.384,16,392.424,16,382.272V201.136
	c0-19.232,7.488-37.312,21.088-50.912l34.152-34.152c2.368-2.368,5.456-3.712,8.76-3.968v36.584l-20.288,20.288
	C52.16,176.528,48,186.568,48,197.256v85.496c0,10.68,4.16,20.728,11.712,28.28L80,331.312V344h16v-16v-40c0-8.824,7.176-16,16-16
	s16,7.176,16,16V347.16z M207.184,452.488L196.28,430.68l-23.12,5.776l21.912-55.368c6.8,3.664,14.536,5.328,22.384,4.64
	c3.488,4.16,7.752,7.48,12.472,9.888L207.184,452.488z M299.712,430.68l-10.904,21.808l-22.744-56.864
	c4.72-2.408,8.984-5.728,12.472-9.888c7.848,0.696,15.584-0.976,22.384-4.64l21.904,55.368L299.712,430.68z M308.808,332.208
	l-4.744,3.008l1.224,5.488c1.808,8.104-0.576,16.4-6.376,22.2c-5.808,5.8-14.112,8.184-22.208,6.376l-5.488-1.224l-3.008,4.744
	C263.76,379.816,256.2,384,248,384s-15.76-4.184-20.208-11.192l-3.016-4.744l-5.48,1.224c-8.12,1.8-16.408-0.576-22.2-6.384
	c-5.8-5.8-8.184-14.096-6.376-22.2l1.224-5.488l-4.744-3.008C180.184,327.76,176,320.2,176,312s4.184-15.76,11.192-20.208
	l4.744-3.008l-1.224-5.488c-1.808-8.104,0.576-16.4,6.376-22.208c5.8-5.8,14.104-8.192,22.208-6.376l5.48,1.216l3.008-4.736
	C232.24,244.184,239.8,240,248,240c8.2,0,15.76,4.184,20.216,11.192l3.008,4.736l5.48-1.216c8.088-1.816,16.408,0.584,22.208,6.376
	c5.8,5.808,8.184,14.104,6.376,22.208l-1.224,5.488l4.744,3.008C315.816,296.24,320,303.8,320,312S315.816,327.76,308.808,332.208z
	 M352,288v32h-16.84c0.536-2.608,0.84-5.28,0.84-8c0-11.912-5.248-22.984-14.272-30.536c1.032-11.72-3.088-23.264-11.504-31.688
	c-8.424-8.416-19.976-12.52-31.688-11.504C270.984,229.248,259.904,224,248,224s-22.984,5.248-30.536,14.264
	c-11.712-1.008-23.264,3.088-31.68,11.504c-8.424,8.424-12.544,19.968-11.504,31.688C165.248,289.016,160,300.088,160,312
	c0,2.728,0.304,5.392,0.84,8H144v-32c0-17.648-14.352-32-32-32c-5.856,0-11.272,1.696-16,4.448V16h304v244.448
	c-4.728-2.752-10.144-4.448-16-4.448C366.352,256,352,270.352,352,288z M480,480H368v-32h112V480z M480,382.272
	c0,10.152-2.76,20.112-7.984,28.808L459.472,432H384v-34.424l-1.344-2.016C373.064,381.176,368,364.44,368,347.16V288
	c0-8.824,7.176-16,16-16s16,7.176,16,16v40v16h16v-12.688l20.288-20.288c7.552-7.552,11.712-17.592,11.712-28.28v-85.488
	c0-10.68-4.16-20.728-11.712-28.28L416,148.688v-36.584c3.304,0.256,6.392,1.6,8.76,3.968l34.152,34.152
	c13.6,13.6,21.088,31.68,21.088,50.912L480,382.272L480,382.272z"/>
<path d="M248,272c-22.056,0-40,17.944-40,40c0,22.056,17.944,40,40,40s40-17.944,40-40C288,289.944,270.056,272,248,272z M248,336
	c-13.232,0-24-10.768-24-24s10.768-24,24-24s24,10.768,24,24S261.232,336,248,336z"/>
<path d="M384,32H112v80h272V32z M368,96H128V48h240V96z"/>
<rect x="144" y="128" width="240" height="16"/>
<rect x="112" y="160" width="272" height="16"/>
<rect x="112" y="192" width="240" height="16"/>
<rect x="368" y="192" width="16" height="16"/>
<rect x="112" y="128" width="16" height="16"/>
<g>
</g>
<g>
</g>
<g>
</g>
<g>
</g>
<g>
</g>
<g>
</g>
<g>
</g>
<g>
</g>
<g>
</g>
<g>
</g>
<g>
</g>
<g>
</g>
<g>
</g>
<g>
</g>
<g>
</g>
</svg>
