<svg id="Layer_1" height="512" viewBox="0 0 512 512" width="512" xmlns="http://www.w3.org/2000/svg" xmlns:xlink="http://www.w3.org/1999/xlink" data-name="Layer 1"><linearGradient id="GradientFill_1" gradientUnits="userSpaceOnUse" x1="256" x2="256.001" y1="433.745" y2="78.255"><stop offset="0" stop-color="#6c54a3"/><stop offset="1" stop-color="#00b1d2"/></linearGradient><path d="m405.53 341.2-19.484-19.461a8.019 8.019 0 0 0 -11.323 0l-15.805 15.829-28.212-80.387 80.394 28.185-15.8 15.828a7.929 7.929 0 0 0 0 11.309l19.437 19.47-9.2 9.223zm-121.955-87.556c-.047 0-.094-.081-.094-.133v-22.886c0-.052.047-.132.094-.132h127.051c.047 0 .141.08.141.132v22.886c0 .052-.094.133-.141.133h-38.309a7.843 7.843 0 0 0 -2.312.339l-49.725-17.418a7.921 7.921 0 0 0 -8.256 1.887 8.1 8.1 0 0 0 -1.935 8.313l2.454 6.879zm128.654 53.2 19.2-19.164a8.021 8.021 0 0 0 -3.019-13.209l-14.673-5.138a16.164 16.164 0 0 0 13.021-15.824v-22.884a16.133 16.133 0 0 0 -16.134-16.13h-127.049a16.123 16.123 0 0 0 -16.087 16.13v22.886a16.122 16.122 0 0 0 16.087 16.13h34.534l29.911 85.223a8 8 0 0 0 13.21 3.009l19.154-19.168 19.485 19.456a7.9 7.9 0 0 0 5.661 2.355 8.067 8.067 0 0 0 5.662-2.355l20.522-20.536a8.013 8.013 0 0 0 0-11.309l-19.485-19.47zm-128.748-149.344c0-.052.047-.123.094-.123h127.051c.047 0 .141.071.141.123v22.9c0 .047-.094.118-.141.118h-127.051c-.047 0-.094-.071-.094-.118zm.094 39.021h127.051a16.134 16.134 0 0 0 16.134-16.121v-22.9a16.131 16.131 0 0 0 -16.134-16.121h-127.051a16.121 16.121 0 0 0 -16.087 16.121v22.9a16.124 16.124 0 0 0 16.087 16.121zm-136.675-22.259c1.51-5.26 7.313-7.657 12.077-7.657s10.568 2.4 12.078 7.657c3.067 10.79-1.7 22.23-7.784 27.533-1.651 1.43-4.671 4.1-9.766-1.113-5.378-5.53-9.341-16.918-6.6-26.42zm41.752 40.79c-5.944-1.661-9.907-2.708-12.6-3.388 8.681-9.062 15.144-25.112 10.379-41.8-3.255-11.342-14.531-19.263-27.458-19.263s-24.249 7.921-27.457 19.263c-4.01 13.927.378 31.548 10.473 41.927-2.642.684-6.463 1.7-12.077 3.26-11.464 3.2-17.409 7.525-18.258 22.31a3.014 3.014 0 0 0 0 .651v.661c.142 5.52.189 8.039.189 13.729a8.017 8.017 0 0 0 7.973 8.011 8 8 0 0 0 8.02-7.992c0-5.9-.047-8.478-.189-14.14v-.316c.283-4.42.944-5.284.991-5.373.33-.349 1.557-1 5.567-2.128 12.833-3.581 15.522-4.109 15.994-4.171a8.024 8.024 0 0 0 6.84-5.883l.189-.759c.613.061 1.227.094 1.84.094a17.92 17.92 0 0 0 2.217-.141l.236.806a7.9 7.9 0 0 0 6.747 5.874c.518.071 3.255.6 16.087 4.18 4.01 1.128 5.237 1.779 5.52 2.128.094.089.755.953 1.038 5.373v.316c-.142 5.662-.189 8.242-.189 14.14a7.989 7.989 0 0 0 7.973 7.992h.047a8.018 8.018 0 0 0 7.974-8.011c0-5.69.047-8.209.188-13.729v-1.312c-.849-14.785-6.793-19.107-18.258-22.31zm-29.391 60.024a69.566 69.566 0 1 0 -69.54-69.576 69.67 69.67 0 0 0 69.541 69.573zm0-155.13a85.564 85.564 0 1 0 85.58 85.557 85.632 85.632 0 0 0 -85.58-85.557zm-143.231 265.829h180.03v11.681a14.2 14.2 0 0 0 14.2 14.177h91.525a14.194 14.194 0 0 0 14.153-14.177v-11.681h180.08v13.969a18.021 18.021 0 0 1 -18.023 18h-443.995a18.01 18.01 0 0 1 -17.974-18v-13.969zm196.071 0v9.86h87.845v-9.86zm-166.727-273.519v257.516h421.3v-257.516a18.05 18.05 0 0 0 -18.022-18h-385.303a18.009 18.009 0 0 0 -17.975 18zm-11.374 321.489h444a34.04 34.04 0 0 0 34.016-34v-21.972a8.007 8.007 0 0 0 -8.02-8h-21.33v-257.517a34.06 34.06 0 0 0 -34.015-34h-385.302a34.02 34.02 0 0 0 -33.968 34v257.516h-21.372a8.007 8.007 0 0 0 -8.02 8v21.971a34.07 34.07 0 0 0 34.011 34.002z" fill="url(#GradientFill_1)" fill-rule="evenodd"/></svg>