<svg height="512" viewBox="0 0 64 64" width="512" xmlns="http://www.w3.org/2000/svg"><g id="man-learning-laptop-books-online_learning" data-name="man-learning-laptop-books-online learning"><path d="m43 37h-22v-11.44a1.992 1.992 0 0 1 1.51-1.94l6.49-1.62a3 3 0 0 0 6 0l6.49 1.62a1.992 1.992 0 0 1 1.51 1.94z" fill="#91dc5a"/><path d="m43 25.56v11.44h-4v-11.44a1.992 1.992 0 0 0 -1.51-1.94l-2.65-.66a3.02 3.02 0 0 0 .16-.96l6.49 1.62a1.992 1.992 0 0 1 1.51 1.94z" fill="#5eac24"/><path d="m61 37v6h-4-4-11-20-11-4-4v-6h8 10 14 8z" fill="#a78966"/><path d="m61 25v12h-18v-12a2.006 2.006 0 0 1 2-2h14a2.006 2.006 0 0 1 2 2z" fill="#c6c5ca"/><path d="m61 25v12h-4v-12a2.006 2.006 0 0 0 -2-2h4a2.006 2.006 0 0 1 2 2z" fill="#acabb1"/><path d="m53 43h4v18h-4z" fill="#806749"/><path d="m43 33v4a4 4 0 0 1 -4-4z" fill="#898890"/><path d="m42 43v4a2.006 2.006 0 0 1 -2 2h-.54a4.225 4.225 0 0 0 -.63-.83 4 4 0 0 0 -6.83 2.83 3.995 3.995 0 0 0 -4-4 3.98 3.98 0 0 0 -3.46 2h-.54a2.006 2.006 0 0 1 -2-2v-4z" fill="#7ed63e"/><path d="m40 51v10h-8v-10a4 4 0 0 1 6.83-2.83 4.225 4.225 0 0 1 .63.83 3.989 3.989 0 0 1 .54 2z" fill="#ffc477"/><path d="m40 11h-2l-3-2-5 2-1-2-3 2h-2a8 8 0 1 1 16 0z" fill="#ffcd00"/><g fill="#ffc477"><path d="m38 11v2a5.985 5.985 0 0 1 -3 5.19 5.961 5.961 0 0 1 -6 0 5.752 5.752 0 0 1 -1.24-.95 5.944 5.944 0 0 1 -1.76-4.24v-2l3-2 1 2 5-2z"/><path d="m35 18.19v3.81a3 3 0 0 1 -6 0v-3.81a5.961 5.961 0 0 0 6 0z"/><path d="m32 51v10h-8v-10a4 4 0 1 1 8 0z"/></g><path d="m19 18-3 1.13-5 1.87-5-1.87-3-1.13 8-3z" fill="#ff3051"/><path d="m19 18-2.93 1.1-7.9-3.04 2.83-1.06z" fill="#cd2a00"/><path d="m16 19.13v5.87h-1-8-1v-5.87l5 1.87z" fill="#d43237"/><path d="m16 19.13v5.87h-4v-4.37z" fill="#ab2300"/><path d="m15 25v4h-8a2.006 2.006 0 0 1 -2-2 2.015 2.015 0 0 1 2-2z" fill="#fee9ab"/><path d="m11 25h4v4h-4z" fill="#ffde55"/><path d="m11 29a2.006 2.006 0 0 1 2 2 2.015 2.015 0 0 1 -2 2h-8v-4z" fill="#a78966"/><path d="m11 33a2.006 2.006 0 0 1 2 2 2.015 2.015 0 0 1 -2 2h-8v-4z" fill="#fee9ab"/><path d="m13 31a2.015 2.015 0 0 1 -2 2h-4a2.015 2.015 0 0 0 2-2 2.006 2.006 0 0 0 -2-2h4a2.006 2.006 0 0 1 2 2z" fill="#806749"/><path d="m13 35a2.015 2.015 0 0 1 -2 2h-4a2.015 2.015 0 0 0 2-2 2.006 2.006 0 0 0 -2-2h4a2.006 2.006 0 0 1 2 2z" fill="#ffde55"/><path d="m7 43h4v18h-4z" fill="#806749"/><path d="m56 37h5v6h-5z" fill="#957856"/><path d="m55 43h2v18h-2z" fill="#6a563d"/><path d="m9 43h2v18h-2z" fill="#6a563d"/><path d="m40 11h-2l-2.13-1.42a8.023 8.023 0 0 0 -2.21-4.24 8.122 8.122 0 0 0 -3.66-2.09 8.239 8.239 0 0 1 2-.25 7.989 7.989 0 0 1 8 8z" fill="#ebbf00"/><path d="m38 11v2a5.981 5.981 0 0 1 -4 5.65 5.889 5.889 0 0 1 -4 0 5.981 5.981 0 0 0 4-5.65v-2l-1.5-1 2.5-1z" fill="#ffa733"/><path d="m51 29h2v2h-2z"/><path d="m59 22h-14a2.963 2.963 0 0 0 -2.3 1.1 2.973 2.973 0 0 0 -.97-.45l-5.73-1.43v-2.48a7.01 7.01 0 0 0 3-5.74v-1h1a1 1 0 0 0 1-1 9 9 0 0 0 -18 0 1 1 0 0 0 1 1h1v1a7.01 7.01 0 0 0 3 5.74v2.48l-5.73 1.43a3 3 0 0 0 -2.27 2.91v10.44h-6.18a3 3 0 0 0 .18-1 2.974 2.974 0 0 0 -.78-2 2.974 2.974 0 0 0 .78-2 3 3 0 0 0 -.18-1h1.18a1 1 0 0 0 1-1v-3a1 1 0 0 0 1-1v-5.18l2.35-.88a1 1 0 0 0 0-1.88l-8-3a1.051 1.051 0 0 0 -.7 0l-8 3a1 1 0 0 0 0 1.88l2.35.88v4.96a2.937 2.937 0 0 0 -.82 3.22h-1.18a1 1 0 0 0 -1 1v14a1 1 0 0 0 1 1h3v17a1 1 0 0 0 1 1h4a1 1 0 0 0 1-1v-17h9v3a3 3 0 0 0 2.14 2.86 5.388 5.388 0 0 0 -.14 1.14v10a1 1 0 0 0 1 1h16a1 1 0 0 0 1-1v-10a5.388 5.388 0 0 0 -.14-1.14 3 3 0 0 0 2.14-2.86v-3h9v17a1 1 0 0 0 1 1h4a1 1 0 0 0 1-1v-17h3a1 1 0 0 0 1-1v-18a3.009 3.009 0 0 0 -3-3zm-33.93-12a7 7 0 0 1 13.86 0h-.63l-2.75-1.83a.975.975 0 0 0 -.92-.1l-4.15 1.66-.59-1.18a1.024 1.024 0 0 0 -.63-.52 1 1 0 0 0 -.81.14l-2.75 1.83zm1.93 3v-1.46l1.61-1.08.5.99a.981.981 0 0 0 .89.55.971.971 0 0 0 .37-.07l4.51-1.81 2.12 1.42v1.46a5 5 0 0 1 -10 0zm7 6.71v2.29a2 2 0 0 1 -4 0v-2.29a7.042 7.042 0 0 0 4 0zm-12 5.85a1 1 0 0 1 .76-.97l5.45-1.36a3.978 3.978 0 0 0 7.58 0l5.45 1.36a1 1 0 0 1 .76.97v6.44h-3a1 1 0 0 0 -1 1 4.924 4.924 0 0 0 1.03 3h-3.03v-3a1 1 0 0 0 -1-1h-1.38l-1.73-3.45-1.78.9 1.27 2.55h-3.38v-4h-2v5a1 1 0 0 0 1 1h7v2h-12zm20 8.44v1.83a3.016 3.016 0 0 1 -1.83-1.83zm-28-6h-7a1 1 0 0 1 0-2h7zm1-4h-8v-3.43l3.65 1.37a1.051 1.051 0 0 0 .7 0l3.65-1.37zm-4-7.93 5.15 1.93-5.15 1.93-5.15-1.93zm-7 13.93h7a1 1 0 0 1 0 2h-7zm0 4h7a1 1 0 0 1 0 2h-7zm6 26h-2v-16h2zm21 0h-6v-9a3 3 0 0 1 6 0zm8 0h-6v-9a3 3 0 0 1 6 0zm2-13a1 1 0 0 1 -1 1h-.03a4.948 4.948 0 0 0 -7.97.03 4.948 4.948 0 0 0 -7.97-.03h-.03a1 1 0 0 1 -1-1v-3h18zm15 13h-2v-16h2zm4-18h-56v-4h56zm0-6h-16v-11a1 1 0 0 1 1-1h14a1 1 0 0 1 1 1z"/><path d="m52 8a8.945 8.945 0 0 1 6.363 2.637l1.414-1.414a10.994 10.994 0 0 0 -15.554 0l1.414 1.414a8.945 8.945 0 0 1 6.363-2.637z"/><path d="m56.95 12.056a6.987 6.987 0 0 0 -9.9 0l1.42 1.408a4.988 4.988 0 0 1 7.06 0z"/><path d="m49.874 14.892 1.432 1.4a1 1 0 0 1 1.388 0l1.432-1.4a3.051 3.051 0 0 0 -4.252 0z"/></g></svg>