<?xml version="1.0" encoding="iso-8859-1"?>
<!-- Generator: Adobe Illustrator 19.0.0, SVG Export Plug-In . SVG Version: 6.00 Build 0)  -->
<svg version="1.1" id="Layer_1" xmlns="http://www.w3.org/2000/svg" xmlns:xlink="http://www.w3.org/1999/xlink" x="0px" y="0px"
	 viewBox="0 0 511.998 511.998" style="enable-background:new 0 0 511.998 511.998;" xml:space="preserve">
<g>
	<path style="fill:#0083CA;" d="M134.403,444.535c-0.917-3.782-3.627-6.86-5.607-10.147c-2.552-4.24-5.089-8.515-7.908-12.588
		c-5.049-7.295-11.385-15.199-18.668-20.378c-7.089-5.041-19.208-7.132-27.771-6.467c-8.549,0.664-14.267,6.724-16.394,14.583
		c-0.432,0.483-0.823,1.004-1.17,1.557c-1.049,0.11-2.053,0.323-3.007,0.638c-2.172,0.217-4.386,0.956-6.414,2.264
		c-6.55,4.227-12.598,12.615-15.585,19.701c-3.195,7.58-5.655,15.689,2.181,21.269c3.025,4.632,8.988,4.826,14.203,4.715
		c6.493-0.139,12.264-0.744,18.656-2.077c5.489-1.145,11.636-3.568,17.201-3.574c5.058-0.005,10.583,1.142,15.63,1.563
		c1.35,0.112,2.606,0.378,3.882,0.553c0.772,0.697,1.626,1.297,2.602,1.75c4.021,1.866,7.727,1.108,10.323-0.937
		c3.699,0.44,7.299,0.363,11.197-0.724C132.819,454.828,135.619,449.556,134.403,444.535z"/>
	<path style="fill:#0083CA;" d="M384.533,354.463c-0.018-0.183-0.035-0.364-0.053-0.547c-0.219-2.262-0.87-4.138-1.802-5.668
		c-3.154-5.442-4.442-14.621-5.033-20.653c-1.126-11.473-15.674-13.932-20.631-6.381c-2.928-1.682-6.817-1.866-9.982-0.632
		c-4.567-4.398-13.376-4.045-16.679,2.095c-0.514,0.957-0.918,1.938-1.252,2.935c-1.092-0.647-2.345-1.084-3.626-1.305
		c-0.057-0.792-0.199-1.572-0.466-2.334c-1.842-5.237-6.704-8.266-12.269-6.966c-9.364,2.186-12.801,13.826-15.292,22.95
		c-2.793,2.868-5.434,6.169-5.08,9.82c0.112,1.152,0.465,2.281,1.006,3.293c-0.871,2.922-1.457,5.892-1.185,9.172
		c0.559,6.719,5.322,12.337,12.386,12.445c3.333,0.052,6.483-0.956,9.397-2.61c2.486,1.78,5.627,3.001,9.548,3.429
		c5.911,0.647,10.728-0.92,14.577-3.905c1.797,0.698,3.755,1.067,5.874,0.965c3.62-0.174,6.665-1.373,9.194-3.287
		c2.475,0.17,4.757-0.376,6.811-1.422c0.416,0.332,0.85,0.659,1.325,0.982c3.806,2.583,10.262,1.779,13.697-1.585
		C380.322,364.596,385.142,360.756,384.533,354.463z"/>
</g>
<g>
	<path style="fill:#0A5FA5;" d="M346.749,356.043c-5.402-4.587-12.816-2.813-19.287-1.742c-0.228,0.038-0.47,0.077-0.722,0.117
		c3.081-3.792,5.399-8.055,5.737-12.74c0.352-4.865-1.42-9.956-5.483-12.598c0.687-1.314,0.917-2.901,0.487-4.649
		c-0.096-0.388-0.192-0.777-0.286-1.164c-0.709-2.877-4.139-5.996-7.32-5.574c-1.012,0.135-7.773,1.861-3.25,0.716
		c-2.375,0.601-4.347,0.653-6.528,2.013c-3.192,1.992-6.971,5.431-8.933,8.587c-3.794,6.101-6.339,14.322-6.707,21.804
		c-1.533,3.789-1.731,7.909,0.391,11.953c4.886,9.307,16.478,13.379,26.342,13.763c5.724,0.222,11.887-1.101,17.251-3.086
		c4.797-1.775,8.097-6.464,9.983-11.076C349.217,360.418,348.325,357.381,346.749,356.043z"/>
	<path style="fill:#0A5FA5;" d="M72.354,429.317c0.566-4.133-0.092-8.355-2.496-11.909c-5.434-8.035-14.674-8.446-21.819-2.528
		c-0.411,0.34-0.801,0.691-1.178,1.048c-3.386,2.596-5.868,7.606-7.411,12.535c-0.652,1.91-1.225,3.877-1.788,5.873
		c-1.935,6.856-6.009,14.952-3.484,22.117c2.022,5.734,7.534,9.404,13.712,7.785c7.463-1.957,14.962-11.08,19.003-17.353
		C70.11,441.893,74.039,435.236,72.354,429.317z"/>
</g>
<g>
	<path style="fill:#BA3838;" d="M212.973,354.926c-2.223-6.353-6.913-11.171-9.181-17.534c-2.535-7.113-3.958-14.541-6.474-21.626
		c-2.15-6.054-8.547-9.129-14.06-6.846c-4.424,0.097-9.01,2.943-10.956,6.898c-1.876,0.018-3.71,0.46-5.275,1.378
		c-2.511-1.002-5.344-1.21-8.169-0.311c-0.493,0.158-0.961,0.34-1.408,0.546c0.048-0.358,0.095-0.716,0.117-1.084
		c0.345-5.636-4.725-9.027-9.624-9.624c-5.036-0.613-9.344,1.926-13.036,5.749c-3.371,1.486-6.46,3.961-9.166,6.801
		c-4.551,4.776-11.6,15.843-8.947,22.578c0.037,0.093,0.079,0.179,0.117,0.27c-3.927,9.37-5.981,20.897,4.801,24.315
		c4.118,1.305,8.422,0.675,12.521-1.103c1.357,2.007,3.109,3.731,5.338,4.915c5.732,3.045,11.869,1.041,16.683-2.679
		c3.143,1.548,6.762,2.128,10.454,1.306c0.928-0.207,1.819-0.485,2.682-0.816c2.532,1.655,5.579,2.456,8.601,1.331
		c1.736-0.646,3.33-1.353,4.807-2.16c1.305,1.068,2.832,1.908,4.612,2.428c3.816,1.115,6.735,0.337,10.007-0.604
		c0.387,0.095,0.782,0.177,1.194,0.232C206.566,370.36,216.265,364.33,212.973,354.926z"/>
	<path style="fill:#BA3838;" d="M479.943,447.927c-0.61-5.192-2.388-9.303-7.088-12.03c-0.358-0.208-1.205-0.596-1.974-0.937
		c-0.11-0.464-2.148-2.442-2.818-3.419c-4.438-6.482-5.992-14.62-10.694-20.943c-3.125-4.202-7.99-6.567-13.137-4.304
		c-1.737,0.764-3.327,2.073-4.515,3.678c-3.273-4.707-9.658-5.01-14.285-2.05c-2.436-0.354-5,0.045-7.156,1.267
		c-0.097-0.107-0.187-0.218-0.287-0.324c-2.286-2.38-6.008-3.238-9.215-2.393c-1.243-1.827-3.142-2.461-5.52-1.771
		c-0.837,0.242-1.602,0.662-2.367,1.062c-1.294,0.675,0.019,0.207,0.618-0.018c-0.169,0.066-0.421,0.163-0.797,0.311
		c-2.786,1.093-4.487,2.071-6.7,4.225c-4.289,4.173-8.385,8.356-11.397,13.581c-2.881,4.996-6.294,12.562-4.515,18.035
		c-0.608,1.836-0.922,3.716-0.595,5.637c-0.19,4.369,1.582,8.316,7.019,10.361c4.677,1.759,8.397-0.079,11.892-2.794
		c3.317,0.008,6.845-0.493,10.182-1.552c3.369,0.785,7.126,0.199,10.558-1.263c2.624,1.804,5.807,2.677,9.214,2.166
		c2.437,2.306,5.431,3.813,8.756,3.895c0.466,0.208,0.923,0.421,1.427,0.608c10.704,3.955,24.479,1.376,35.412-0.537
		C476.17,457.678,480.455,452.287,479.943,447.927z"/>
</g>
<g>
	<path style="fill:#821E1E;" d="M423.431,427.222c-0.303-0.603-0.705-1.098-1.146-1.542c1.036-4.323,1.396-8.732,0.682-12.995
		c-0.7-4.179-5.516-7.281-9.518-7.246c-3.525,0.032-6.17,1.449-8.073,3.635c-0.614,0.018-1.232,0.084-1.847,0.223
		c-4.546,1.031-7.609,4.811-9.869,9.294c-4.042,4.549-6.567,9.782-9.19,15.243c-2.251,4.686-6.288,10.311-6.295,15.587
		c-0.006,4.772,4.443,7.62,8.827,6.724c1.943-0.397,3.76-0.962,5.483-1.659c0.545,0.195,1.108,0.361,1.692,0.485
		c6.261,1.338,12.515-2.558,17.024-7.413c1.363-0.134,2.769-0.514,4.191-1.231C422.227,442.884,427.06,434.436,423.431,427.222z"/>
	<path style="fill:#821E1E;" d="M161.483,336.921c-0.455-1.197-1.17-2.198-2.029-2.996c2.354-8.495,1.92-17.205-3.384-23.321
		c-2.291-2.641-6.637-3.598-9.905-2.617c-5.477,1.644-8.423,5.662-10.492,10.342c-0.116,0.02-0.232,0.038-0.345,0.062
		c0.801-2.699,1.894-5.375,1.875-8.182c-0.009-1.307-1.218-2.837-2.659-2.659c-7.534,0.925-9.484,9.23-11.573,15.363
		c-2.414,7.088-4.98,14.393-5.774,21.907c-1.504,5.022-1.532,10.106,2.388,14.271c5.742,6.102,15.042,4.109,21.627,0.39
		c3.714,0.849,7.814,0.245,11.73-2.088C159.236,353.644,164.249,344.195,161.483,336.921z"/>
</g>
<path style="fill:#FFC60B;" d="M310.738,448.528c-0.361-0.924-0.719-1.771-1.123-2.568c0.015,0.004,0.03,0.008,0.044,0.011
	c-0.049-0.074-0.102-0.141-0.151-0.214c-0.673-1.287-1.479-2.45-2.639-3.605c-0.716-0.714-1.585-1.272-2.529-1.677
	c-0.498-0.392-1.005-0.784-1.529-1.185c-1.696-1.296-5.767-3.031-7.055-4.606c-1.069-1.307-1.62-4.275-2.286-5.821
	c-1.365-3.171-3.12-6.116-5.88-8.277c-0.228-0.179-0.46-0.349-0.693-0.517c-1.749-3.695-4.003-6.821-6.523-8.751
	c-1.241-0.951-2.514-1.538-3.78-1.84c-1.505-1.718-3.476-3.027-6.11-3.64c-4.193-0.976-8.655,0.256-11.588,3.168
	c-1.736-0.516-3.568-0.64-5.348-0.377c-4.121-3.007-10.319-3.456-15.374-0.241c-0.102,0.064-0.189,0.145-0.289,0.212
	c-0.772-3.487-4.604-5.795-7.935-6.077c-11.048-0.939-18.72,11.454-22.408,20.045c-1.703,3.968-2.808,8.981-1.387,13.261
	c0.207,0.62,0.485,1.213,0.817,1.771c-0.93,2.673-1.64,5.396-2.127,8.061c-1.721,9.446,6.393,18.985,16.528,15.979
	c4.764-1.413,9.577-4.681,13.835-8.448c1.422,0.841,3.091,1.49,5.073,1.886c3.35,0.667,6.71,0.03,9.851-1.391
	c6.652,5.042,15.653,4.527,22.03-0.308c0.64,0.185,1.294,0.33,1.963,0.421c3.809,3.756,8.577,4.59,13.246,2.462
	c3.327,2.201,6.912,4.128,10.201,5.43C304.852,464.579,313.566,455.782,310.738,448.528z"/>
<path style="fill:#CC9809;" d="M258.924,432.247c-0.013-0.086-0.025-0.184-0.038-0.277c0.548-3.404,0.586-6.881,0.117-10.193
	c-0.455-3.209-2.481-5.418-5.097-6.615c-0.174-1.676-0.494-3.291-0.996-4.806c-1.402-4.235-4.933-6.999-9.408-7.163
	c-6.357-0.233-10.347,4.101-12.886,9.243c-7.168-0.527-10.816,6.383-13.524,12.293c-1.71,3.731-2.74,7.591-4.179,11.408
	c-1.526,4.047-3.722,7.369-3.281,11.914c0.4,4.113,3.449,8.631,8.213,8.213c1.55-0.136,2.98-0.492,4.319-1.007
	c3.705,1.035,7.982,0.562,11.561-1.236c1.006-0.506,1.993-1.109,2.96-1.783c3.479,0.886,7.309,0.44,10.84-1.626
	c5.771,1.263,12.288-2.278,12.294-9.54C259.823,438.038,259.378,435.231,258.924,432.247z"/>
<g>
	<path style="fill:#B3B3B3;" d="M158.632,488.361c-0.741-2.619-1.277-5.187-1.585-7.889c0.009-0.461,0.014-0.822,0.016-1.106
		c0.75-1.238,1.162-2.568,1.222-3.994c1.002-7.432-2.745-12.821-10.381-13.627c-10.791-1.138-21.675,0.116-32.478,1.428
		c-12.102,1.471-24.647-1.529-36.769-1.896c-12.313-0.373-23.984-3.163-36.457-1.606c-5.724,0.715-11.313,2.395-16.934,3.596
		c-1.872,0.4-3.847,0.97-5.643,1.789c-4.993-1.802-11.803,0.881-12.823,6.513c-1.394,7.708-2.185,14.797,3.689,20.132
		c0.898,1.108,1.964,2.001,3.162,2.517c2.625,1.131,5.037,1.568,7.463,1.753c8.383,2.665,16.432,6.376,25.211,7.411
		c8.188,0.965,17.258-0.337,25.303-3.098c2.991,0.356,5.989,0.669,9.006,0.861c5.581,0.354,11.167,1.717,16.703,2.459
		c6.243,0.836,10.783,0.502,16.954-0.664c5.353-1.012,11.467-0.286,16.949-0.323c3.891-0.026,10.55-1.847,13.976-0.838
		C153.192,504.128,160.874,496.273,158.632,488.361z"/>
	<path style="fill:#B3B3B3;" d="M333.436,466.566c-4.385-9.089-14.088-12.467-23.785-9.726c-2.766,0.782-5.404,2.013-8.092,3.045
		c-2.644,0.096-5.317,0.285-8.136,0.377c-8.101,0.264-16.251,0.053-24.357,0.086c-7.976,0.031-16.06,0.49-24.022,0.241
		c-7.234-0.227-14.357-2.131-21.573-2.617c-6.922-0.465-14.562-0.426-21.452,0.313c-6.881,0.738-13.691,0.769-18.544,6.439
		c-7.885,9.214-8.742,29.198,3.941,34.824c2.532,1.123,5.125,0.939,7.122-0.165c3.214,0.348,6.342,0.357,9.718,0.282
		c4.221-0.092,7.466,1.311,11.508,2.424c9.496,2.616,17.78,1.817,27.36,1.483c8.358-0.291,16.072,0.589,24.328,1.386
		c8.319,0.804,16.773-0.113,25.119,0.131c3.467,0.102,6.841,1.039,10.327,1.289c4.534,0.327,9.146-0.696,13.623-1.256
		c9.716-1.214,15.479-7.191,15.301-17.341c-0.055-3.192-1.219-6.165-1.919-9.148C333.908,476.483,335.877,471.624,333.436,466.566z"
		/>
	<path style="fill:#B3B3B3;" d="M502.298,463.67c-5.337-5.698-14.205-7.108-21.659-6.948c-4.062,0.087-7.828,1.319-11.811,1.833
		c-4.447,0.574-8.988,0.498-13.453,1.001c-3.51,0.396-5.444,0.019-8.775-0.867c-4.529-1.205-9.317-0.598-13.932-0.658
		c-8.659-0.112-17.168-2.113-25.866-1.717c-4.154,0.189-8.234,1.256-12.367,1.672c-4.509,0.453-9.149-0.78-13.717-0.796
		c-7.695-0.024-17.534-0.403-23.156,5.677c-4.814,5.207-5.198,11.689-6.668,18.063c-0.683,1.175-1.213,2.446-1.488,3.883
		c-1.343,7.025,4.559,15.039,12.404,12.404c1.167-0.392,2.194-0.885,3.123-1.455c1.899,0.764,3.91,1.304,6.073,1.693
		c4.896,0.881,9.515,2.737,14.411,3.549c11.123,1.846,22.549-0.492,33.452-2.846c5.099,1.354,10.36,2.082,14.933,2.355
		c3.571,0.214,8.809,0.337,13.971-0.319c3.625-0.327,7.253-0.735,10.92-0.659c2.696,0.055,5.212,0.706,7.904,0.835
		c3.326,0.16,6.317-0.89,9.51-1.499c2.699-0.514,5.22-0.406,8.001-0.867c0.927-0.154,5.762-1.524,5.378-1.587
		c5.928,0.954,12.197-1.456,13.848-7.864c0.518-2.011,1.464-4.516,1.309-6.633c0.448-2.012,0.238-2.374-0.627-1.088
		c0.414-0.85,0.797-1.715,1.149-2.592C507.037,473.061,506.13,467.762,502.298,463.67z"/>
	<path style="fill:#B3B3B3;" d="M171.212,445.555c-2.356-6.69-6.714-12.501-13.184-13.879c-0.322-0.53-0.646-1.059-0.987-1.578
		c-2.147-3.26-4.777-6.498-7.106-9.787c-0.431-0.983-0.854-1.971-1.261-2.963c-2.899-7.07-6.799-14.643-11.542-20.957
		c-0.537-1.183-1.256-2.238-2.167-2.97c-0.206-0.165-0.411-0.33-0.617-0.496c-11.124-8.943-25.653,4.864-15.878,15.878
		c3.292,3.709,5.926,8.785,8.157,13.673c0.211,1.22,0.64,2.48,1.362,3.76c0.351,0.622,0.726,1.237,1.115,1.847
		c1.521,3.48,3.369,6.811,5.124,10.18c1.712,4.082,3.31,8.235,5.352,12.177c1.813,3.497,4.819,5.058,7.94,5.191
		c0.788,1.164,1.618,2.308,2.551,3.413c1.431,1.694,3.586,2.628,5.841,2.877c1.004,2.514,2.171,4.969,3.634,7.212
		c2.343,3.595,7.682,4.796,10.857,1.399C175.899,464.649,173.702,452.623,171.212,445.555z"/>
</g>
<g>
	<path style="fill:#999999;" d="M219.281,378.099c-1.062-2.743-3.37-5.125-7.204-6.356c-3.067-0.985-5.868-0.724-8.288,0.356
		c-1.466-0.005-2.886-0.373-4.425-0.692c-4.307-0.896-7.359,1.377-11.397,1.492c-2.617,0.076-5.658-1.145-8.379-1.289
		c-2.991-0.156-5.845,1.567-8.533,1.565c-2.683-0.003-5.813-1.99-8.467-2.557c-3.281-0.701-6.346-0.512-9.591,0.208
		c-2.822,0.627-5.792,1.713-8.711,1.44c-3.032-0.285-5.718-1.664-8.818-1.964c-3.554-0.343-7.947,2.987-8.581,6.533
		c-0.475,2.653-0.693,5.339-0.904,8.026c-0.977,1.112-1.875,2.291-2.684,3.477c-3.312,4.846-7.067,8.895-7.393,13.924
		c-1.13,0.719-2.137,1.696-2.963,2.974c-2.606,4.037-2.513,8.921,0.43,12.73c2.112,2.732,5.884,4.579,9.388,3.824
		c1.473,2.721,3.074,5.3,4.82,7.943c2.481,3.752,4.831,7.561,7.562,11.143c2.158,6.501,4.166,14.686,9.273,18.641
		c3.359,2.601,8.812,3.405,11.802-0.054c1.044,1.316,2.307,2.442,3.83,3.315c-0.035,0.093-0.079,0.182-0.11,0.277
		c-2.011,4.527-0.034,8.659,0.772,13.163c0.823,4.601,6.161,7.464,10.446,6.82c4.815-0.724,7.987-4.504,8.256-9.351
		c0.169-3.049,0.325-6.018,0.739-9.037c0.199-1.46,0.216-2.788,0.088-4.243c0.013-0.322,0.004-0.637-0.023-0.948
		c5.642,2.78,14.009,0.957,15.99-6.388c1.234-4.579,4.06-8.683,5.477-13.236c0.48-1.544,0.948-3.084,1.42-4.626
		c1.681-3.593,3.171-7.297,4.729-11.009c1.077-2.564,2.017-5.181,2.899-7.818c2.866-5.808,5.742-11.6,8.472-17.482
		C222.013,392.83,224.531,383.505,219.281,378.099z"/>
	<path style="fill:#999999;" d="M388.813,384.543c-1.052-0.17-2.066-0.224-3.062-0.214c1.536-3.054,0.814-6.517-1.408-9.025
		c-4.008-4.524-9.816-2.916-15.027-2.379c-1.484,0.153-2.881,0.512-4.144,1.062c-3.485,0.049-6.763,1.016-9.84,2.606
		c-7.001,0.277-13.904,1.252-20.899,1.505c-0.913,0.033-1.856,0.106-2.793,0.171c-0.11-0.026-0.222-0.053-0.332-0.079
		c-9.955-2.519-22.617-7.18-32.488-1.721c-6.552,3.625-5.667,13.71,0.084,17.007c-0.826,2.379-1.713,4.737-3.001,6.933
		c-1.151,1.966-2.339,3.724-3.182,5.868c-0.081,0.206-0.257,0.576-0.448,0.996c-8.745,0.872-9.532,14.628-0.792,17.275
		c1.739,0.527,4.857,2.851,6.499,3.902c2.432,1.556,5.039,3.964,7.207,5.908c2.732,2.452,4.989,5.017,7.618,7.126
		c-1.561,2.256-1.813,5.343,0.69,7.489c1.073,0.92,2.211,1.678,3.39,2.344c0.284,0.61,0.608,1.204,0.977,1.774
		c0.061,0.129,0.108,0.261,0.174,0.387c2.29,4.439,6.349,6.332,11.259,6.434c1.012,0.021,1.953-0.108,2.824-0.352
		c0.049,0.559,0.081,1.126,0.145,1.701c0.474,4.246,1.631,8.397,1.779,12.641c0.163,4.695,0.624,8.049,3.681,11.815
		c5.44,6.701,15.34-0.651,13.606-7.92c-0.951-3.988,0.013-8.735,0.857-12.646c0.238-1.102,0.421-2.204,0.591-3.305
		c0.095,0.093,0.182,0.189,0.285,0.281c2.219,1.986,5.985,2.428,8.152,0c2.042-2.29,3.352-4.396,4.449-6.804
		c0.477-0.533,0.86-1.154,1.078-1.876c0.559-1.853,1.387-3.969,2.165-6.188c0.286-0.705,0.555-1.412,0.748-2.133
		c0.031-0.118,0.049-0.237,0.074-0.354c1.046-3.423,1.698-6.948,0.874-10.047c2.402-2.752,4.743-5.565,7.092-8.378
		c5.686-6.808,10.72-11.482,13.337-20.198c0.519-1.732-0.25-3.108-1.497-3.863c1.813-2.828,3.003-5.705,4.169-9.132
		C394.829,389.847,392.398,385.125,388.813,384.543z"/>
</g>
<g>
	<path style="fill:#808080;" d="M338.936,451.145c-1.673-1.948-2.517-3.881-3.54-6.203c3.668-6.237-0.132-12.115-4.759-16.398
		c1.647-3.292-0.315-7.678-3.131-9.694c-1.608-1.151-3.326-1.735-5.213-2.194c-0.706-0.171-1.937-0.211-3.095-0.32
		c-1.532-2.548-2.485-5.164-2.117-7.429c0.315-1.933-0.443-3.484-1.623-4.468c0.499-4.761,1.523-9.895,3.236-13.62
		c1.839-4.002,0.318-7.922-3.849-9.462c-14.931-5.523-20.185,23.843-19.658,32.874c0.528,9.049,5.811,16.112,12.769,19.233
		c1.059,2.465,2.176,4.904,3.384,7.299c2.598,5.149,4.461,9.765,10.221,12.058c0.044,0.018,0.091,0.025,0.134,0.04
		c0.925,2.047,2.022,3.956,3.487,5.498c3.625,3.818,10.108,5.413,14.08,1.131C341.321,457.27,341.524,453.077,338.936,451.145z"/>
	<path style="fill:#808080;" d="M160.096,426.671c-2.982-0.294-5.236-0.262-7.65-1.07c-0.081-0.145-0.17-0.282-0.247-0.43
		c-2.586-4.908-4.794-10.006-6.939-15.114c2.66-4.651,4.318-11.133,3.636-16.679c3.062-3.915,1.49-10.654-5.106-11.031
		c-1.524-0.087-2.964-0.023-4.33,0.164c-0.402-0.078-0.817-0.146-1.249-0.195c-15.674-1.778-18.469,24.167-18.656,35.057
		c-0.291,7.086,4.887,10.483,10.249,10.366c1.607,4.072,3.162,8.213,5.305,12.028c3.971,7.068,11.909,17.511,20.718,15.989
		c0.522,0.77,1.136,1.513,1.899,2.267c3.17,3.129,7.652,2.662,10.886,0C179.491,449.072,174.45,428.085,160.096,426.671z"/>
	<path style="fill:#808080;" d="M128.689,492.792c-3.993-7.292-15.829-11.922-23.517-12.859c-9.811-1.196-19.275,0.154-29.091,0.032
		c-9.168-0.115-18.157-1.855-27.126-3.572c-4.656-0.891-8.717-0.025-13.334-0.045c-4.495-0.02-9.474,1.57-13.877,0.685
		c-6.578-1.323-9.477,6.551-4.384,10.396c6.7,5.058,16.617,5.371,24.593,6.966c10.385,2.077,20.267,5.025,30.898,5.839
		c10.488,0.802,20.862-1.365,31.337-1.397c7.826-0.024,19.112,5.216,24.501-3.061C129.27,494.882,129.182,493.691,128.689,492.792z"
		/>
	<path style="fill:#808080;" d="M297.352,493.828c-8.223-2.547-16.863-4.936-25.427-6.275c-4.284-0.671-8.423-0.53-12.734-0.463
		c-4.688,0.073-9.042-0.719-13.682-1.049c-9.36-0.667-18.866-0.183-28.264-0.704c-9.202-0.511-18.115,1.276-27.228,2.361
		c-5.213,0.622-5.225,7.504,0,8.126c4.4,0.523,8.795,1.096,13.209,1.486c4.892,0.432,9.486,1.944,14.304,2.827
		c4.423,0.811,8.882,1.489,13.35,1.987c4.831,0.537,9.7,0.066,14.502,0.59c4.896,0.535,8.832,1.103,13.788,0.357
		c4.393-0.662,8.677-1.721,13.122-1.976c8.519-0.489,16.863-0.402,25.058-2.994C299.447,497.44,299.468,494.483,297.352,493.828z"/>
	<path style="fill:#808080;" d="M420.41,489.99c-7.84-6.675-16.236-6.989-26.021-8.446c-4.839-0.72-9.408-1.271-14.285-0.619
		c-4.949,0.661-10.66,2.095-15.624,1.021c-6.323-1.369-8.509,7.273-2.631,9.545c4.782,1.85,9.939,1.626,14.983,2.031
		c5.401,0.432,10.558,1.312,15.82,2.576c7.373,1.77,21.52,4.712,27.757-0.885C421.812,493.956,421.872,491.235,420.41,489.99z"/>
</g>
<path style="fill:#7AC943;" d="M449.307,55.868l-0.035,0.015c0.005-1.871-0.691-3.818-2.239-5.585
	c-0.02-0.024-0.04-0.047-0.062-0.071c-2.829-3.229-6.719-2.975-9.622-0.986c0.008-0.063,0.016-0.126,0.024-0.19
	c-0.29,0.164-0.58,0.329-0.87,0.494c-0.574,0.325-1.065,0.71-1.495,1.131c-6.988-1.645-16.009-1.596-24.005-1.594
	c-10.05,0.003-19.978-0.962-29.978-1.868c-20.968-1.901-42.36-1.498-63.402-1.428c-4.401,0.014-8.68-0.881-13.071-0.917
	c-5.593-0.045-11.157,0.779-16.746,0.886c-9.495,0.182-19.03-0.789-28.554-0.759c-21.036,0.068-42.056-1.749-63.112-1.744
	c-10.18,0.003-20.36,0.001-30.54,0.005c-9.958,0.004-19.93,1.126-29.874,0.816c-19.441-0.605-39.161-0.342-58.524-2.218
	c-8.457-0.82-17.798-3.697-24.689,3.245c-7.255,7.31-3.731,19.473-4.143,28.653c-0.18,3.999-1.392,7.871-1.387,11.917
	c0.006,4.739,1.131,9.399,1.181,14.143c0.044,4.166,0.565,8.616-0.014,12.697c-0.706,4.989-1.734,9.805-1.712,14.881
	c0.021,5.034,0.504,10.04,0.74,15.063c0.229,4.883-0.319,9.78,0.062,14.654c0.374,4.8,1.193,9.326,1.102,14.164
	c-0.096,5.157-0.495,10.28-0.213,15.441c0.542,9.917,1.921,19.444,1.215,29.413c-0.315,4.444-0.381,8.814-0.405,13.263
	c-0.025,4.446-1.636,8.677-1.526,13.115c0.319,12.777,11.618,16.621,22.283,15.798c7.741-0.598,17.21,1.045,25.584,1.016
	c4.829-0.016,9.608-0.912,14.449-0.936c5.549-0.026,11.099-0.008,16.647-0.01c10.773-0.006,21.548,0.025,32.321-0.026
	c9.929-0.047,19.459,1.122,29.332,1.595c10.018,0.479,20.297-0.802,30.322-1.297c9.995-0.494,19.967-0.131,29.928-1.004
	c9.651-0.845,19.353-1.175,29.007-1.847c17.444-1.215,34.9-2.44,52.418-2.598c4.33-0.039,8.653-0.323,12.981-0.35
	c5.032-0.033,9.823,0.949,14.819,1.183c2.08,0.097,4.19,0.034,6.271-0.013c1.205-0.026,2.421-0.129,3.626-0.136
	c0.127,0.05,0.248,0.098,0.396,0.159c4.908,1.969,10.067,2.046,15.274,1.544c9.6-0.925,19.298,0.177,28.834-1.239
	c3.475-0.516,6.291-1.561,9.2-1.266c5.579,0.564,10.335,1.475,15.1-2.509c7.058-5.899,4.568-13.72,4.845-21.614
	c0.142-4.051,1.05-8.054,1.135-12.141c0.103-5.005-0.605-10.018-0.437-15.016c0.309-9.191,1.613-18.332,2.385-27.507
	c0.371-4.398,1.379-8.635,1.368-13.072c-0.014-5.012-0.236-10.024-0.248-15.037c-0.013-4.839,0.895-9.283,1.671-14.021
	c0.888-5.423,0.495-11.008,0.83-16.485c0.619-10.169,0.364-20.373,0.901-30.539C449.165,75.483,449.809,65.521,449.307,55.868z
	 M74.176,232.403c-0.004-0.559-0.018-1.116-0.028-1.673c0.488,0.585,0.988,1.155,1.508,1.703
	C75.162,232.424,74.669,232.407,74.176,232.403z"/>
<g>
	<path style="fill:#569922;" d="M434.343,43.678c-3.723-0.397-7.512,0.09-11.211-0.456c-4.654-0.685-9.17-2.395-13.792-3.299
		c-9.298-1.817-19.436-2.517-28.9-3.062c-8.925-0.516-17.844,1.881-26.826,0.803c-2.972-0.357-5.903-1.079-8.916-0.951
		c-2.268,0.097-4.453,0.934-6.68,1.113c-3.806,0.305-8.283,0.059-12.095-0.324c-4.811-0.484-9.482-1.662-14.355-1.702
		c-4.98-0.04-9.972,0.127-14.953,0.129c-20.896,0.008-41.844-0.403-62.737,0.044c-9.772,0.209-19.513,1.977-29.263,1.839
		c-9.537-0.134-18.989-0.2-28.515-0.639c-10.734-0.494-21.43,1.679-32.142,2.087c-10.269,0.391-21.065-0.358-31.238,0.875
		c-11.385,1.381-22.596,3.897-33.944,5.331c-4.701,0.594-9.229,2.06-13.813,2.525c-5.841,0.593-11.333,1.387-15.692,5.647
		c-4.345,4.248-2.856,12.296,2.765,14.495c5.196,2.711,9.994,1.876,15.838,1.713c2.92-0.082,5.145-1.009,7.901-1.543
		c3.818-0.739,7.9-0.586,11.769-1.084c12.721-1.638,25.227-2.984,38.071-2.725c12.99,0.263,25.746-0.759,38.658-1.908
		c12.236-1.088,24.953,0.408,37.247,0.624c12.821,0.224,25.581-1.543,38.431-1.538c13.977,0.005,27.954,0.001,41.93,0.006
		c12.928,0.004,26.105-0.923,38.89,0.956c6.173,0.907,12.802,1.3,19.037,0.789c2.224-0.183,4.956-0.981,7.11-0.908
		c3.565,0.121,7.135,1.165,10.762,1.22c6.89,0.106,13.725-1.22,20.547-1.156c6.891,0.066,14.03,1.077,20.886,1.721
		c6.555,0.617,12.802,3.161,19.294,4.206c3.857,0.62,7.562,0.473,11.401,0.725c-0.039,3.712-0.506,7.365-0.845,11.056
		c-0.727,7.909-1.291,15.864-1.819,23.79c-1.074,16.101-1.573,32.242-2.514,48.354c-0.459,7.862-0.986,15.722-1.671,23.568
		c-0.691,7.924-2.312,15.699-3.033,23.602c-0.668,7.318-0.131,14.731-0.267,22.074c-0.113,6.111-0.324,12.201-0.183,18.3
		c-0.895,2.026-0.924,4.506,0.48,7.128c0.27,0.503,0.54,1.006,0.808,1.51c4.058,7.577,15.097,3.654,15.443-4.183
		c0.203-4.596,1.734-8.878,2.708-13.345c1.12-5.131,1.739-10.359,2.574-15.539c1.599-9.912,2.87-19.898,4.108-29.87
		c2.643-21.302,3.403-42.858,4.579-64.276c0.584-10.622,1.412-21.199,2.252-31.802c0.744-9.393,2.509-18.987,2.418-28.41
		C454.735,48.817,445.259,44.844,434.343,43.678z"/>
	<path style="fill:#569922;" d="M392.448,92.234c-0.05-1.121-0.385-2.165-1-3.131c-0.749-1.266-1.756-2.273-3.021-3.021
		c-0.988-0.57-2.083-0.972-3.146-1.369c-0.726-0.097-1.454-0.195-2.18-0.293c-1.128-0.043-2.182,0.193-3.16,0.706
		c-0.695,0.194-1.297,0.546-1.809,1.054c-0.893,0.579-1.596,1.345-2.112,2.301c-0.681,1.289-1.054,2.683-1.12,4.139
		c-0.043,1.13,0.193,2.182,0.706,3.16c0.33,1.016,0.896,1.896,1.696,2.639c0.329,0.277,0.638,0.562,0.919,0.89
		c1.439,1.684,3.824,2.372,5.955,2.467c1.521-0.005,2.936-0.388,4.25-1.15c0.981-0.53,1.769-1.252,2.363-2.169
		c0.744-0.813,1.247-1.768,1.507-2.865C392.649,94.473,392.699,93.354,392.448,92.234z"/>
	<path style="fill:#569922;" d="M396.03,77.739c-0.941-1.3-1.901-2.263-3.549-2.627c-0.609-0.135-1.219-0.27-1.828-0.406
		c-1.842-0.408-3.913-0.066-5.247,1.387c-0.968,1.055-1.58,2.353-1.58,3.814c0,1.383,0.601,2.835,1.58,3.814
		c1.412,1.412,3.341,1.809,5.247,1.387c0.609-0.135,1.218-0.27,1.828-0.406c1.647-0.366,2.607-1.328,3.549-2.629
		C396.845,80.949,396.845,78.864,396.03,77.739z"/>
</g>
<g>
	<path style="fill:#B0E28A;" d="M109.399,200.285c-0.469-1.45-1.231-2.756-2.261-3.879c-0.647-0.696-1.396-1.218-2.235-1.582
		c-0.035-0.028-0.071-0.055-0.107-0.083c-0.564-0.56-1.227-0.947-1.992-1.161c-0.705-0.408-1.464-0.614-2.278-0.617
		c-1.2-0.269-2.401-0.216-3.6,0.161c-0.456,0.142-1.841,0.695-2.263,0.942c-0.619,0.478-1.238,0.956-1.856,1.435
		c-0.478,0.619-0.956,1.237-1.435,1.856c-0.308,0.73-0.617,1.461-0.924,2.191c-0.03,0.074-0.053,0.153-0.066,0.232
		c-0.208,0.803-0.286,1.889-0.363,2.714c0.111,0.823,0.221,1.645,0.332,2.469c0.287,1.208,0.841,2.261,1.662,3.158
		c0.412,0.697,0.968,1.253,1.665,1.665c0.896,0.821,1.949,1.376,3.158,1.662c0.823,0.26,2.003,0.366,2.862,0.383
		c0.901,0.019,1.851-0.141,2.72-0.373c0.161-0.043,0.306-0.095,0.463-0.154c0.821-0.313,1.723-0.633,2.477-1.092
		c0.593-0.458,1.186-0.917,1.779-1.374c0.857-0.797,1.463-1.74,1.818-2.829c0.397-0.686,0.598-1.425,0.6-2.219
		C109.817,202.622,109.766,201.453,109.399,200.285z"/>
	<path style="fill:#B0E28A;" d="M128.213,193.926c0.02-0.184,0.048-0.367,0.064-0.551c0.13-1.457-0.545-3.214-1.21-4.475
		c-0.888-1.681-2.535-2.909-4.239-3.627c-3.143-1.326-7.281-0.784-9.684,1.833c-2.114,2.303-3.127,5.549-2.279,8.625
		c0.681,2.471,2.349,4.332,4.471,5.423c1.053,1.258,2.214,1.824,3.768,2.466c-0.564-0.238-1.127-0.477-1.691-0.714
		c1.212,0.551,2.287,1.196,3.69,1.196c1.779,0,3.47-0.958,4.724-2.17C128.217,199.624,128.507,196.849,128.213,193.926z"/>
	<path style="fill:#B0E28A;" d="M136.619,202.198c-0.103-0.063-0.207-0.125-0.31-0.188c-2.59-1.565-5.982-1.518-8.576,0
		c-2.583,1.512-4.207,4.341-4.207,7.335c0,2.994,1.624,5.824,4.207,7.335c2.593,1.518,5.986,1.565,8.576,0
		c0.103-0.063,0.207-0.125,0.31-0.188c2.508-1.514,4.1-4.197,4.1-7.147C140.719,206.396,139.127,203.713,136.619,202.198z"/>
	<path style="fill:#B0E28A;" d="M266.928,93.034c-0.937-1.523-2.36-2.921-3.93-3.779c-1.986-1.086-3.481-1.251-5.739-1.523
		c-3.212-0.387-7.031,2.116-8.484,4.867c-1.237,2.34-1.707,4.969-0.991,7.571c1.338,4.857,6.222,7.711,10.933,7.062
		c0.226,0.028,0.451,0.039,0.68,0.037c1.241,0.084,2.5-0.129,3.689-0.63c1.046-0.441,1.904-1.054,2.617-1.799
		c-0.001,0.004-0.004,0.006-0.006,0.01C268.968,101.931,269.135,96.62,266.928,93.034z"/>
	<path style="fill:#B0E28A;" d="M287.818,115.71c-0.003-0.799-0.204-1.546-0.605-2.237c-0.211-0.75-0.59-1.402-1.14-1.955
		c-0.395-0.666-0.924-1.196-1.59-1.59c-0.553-0.55-1.205-0.929-1.955-1.14c-0.691-0.401-1.437-0.603-2.237-0.605
		c-0.785-0.212-1.571-0.212-2.356,0c-0.801,0.003-1.546,0.204-2.237,0.605c-0.751,0.211-1.403,0.59-1.955,1.14
		c-0.666,0.395-1.197,0.924-1.59,1.59c-0.55,0.553-0.929,1.205-1.14,1.955c-0.401,0.691-0.603,1.437-0.605,2.237
		c-0.211,0.785-0.211,1.571,0,2.356c0.003,0.799,0.204,1.546,0.605,2.237c0.211,0.751,0.59,1.403,1.14,1.955
		c1.118,1.447,2.76,2.786,4.604,3.177c0.001,0,0.004,0.001,0.005,0.001c0.019,0.005,0.038,0.014,0.058,0.02
		c0.472,0.131,1.778,0.3,2.269,0.3c0.061,0,2.258-0.294,2.327-0.311c0.3-0.079,1.892-0.739,2.172-0.903
		c0.598-0.461,1.196-0.924,1.794-1.386c0.461-0.598,0.924-1.196,1.386-1.794l0.894-2.117
		C288.03,118.068,288.083,116.889,287.818,115.71z"/>
	<path style="fill:#B0E28A;" d="M251.935,175.962c-0.788-0.75-1.689-1.305-2.719-1.639c-0.743-0.431-1.543-0.648-2.402-0.649
		c-1.266-0.284-2.53-0.227-3.796,0.17c-1.57,0.508-2.984,1.333-4.201,2.448c-1.827,1.677-2.683,4.335-2.788,6.731
		c-0.005,0.103,0.009,0.197,0.014,0.299c0.039,0.851,0.174,1.988,0.414,2.808c0.211,0.721,0.721,1.827,1.051,2.501
		c0.086,0.173,0.174,0.334,0.276,0.498c1.792,2.882,5.037,5.06,8.548,4.903c2.626-0.117,5.105-1.005,7-2.9
		c1.795-1.795,2.9-4.462,2.9-7C256.231,181.034,254.618,177.671,251.935,175.962z"/>
</g>
<g>
	<path style="fill:#C18140;" d="M481.646,85.434c0.377-5.254,1.468-10.187,2.505-15.306c0.928-4.577,0.028-7.58-1.925-10.676
		c0.116-0.977,0.241-1.955,0.353-2.933c0.797-6.946,2.413-14.527,1.106-21.409c-0.528-2.784-2.388-4.495-4.656-5.284
		c0.551-6.078-3.525-12.615-9.94-11.994c-1.611-0.808-3.312-1.335-5.323-1.623c-3.023-1.229-5.71-1.514-8.863-1.584
		c-4.371-1.07-8.902-1.224-13.489-1.503c-5.662-0.344-11.511-0.646-17.168-0.73c-10.55-0.156-20.928,1.542-31.474,1.647
		c-5.618,0.055-10.984-0.762-16.602,0.058c-4.882,0.712-9.694-0.372-14.653-0.344c-6.201,0.037-12.41,0.267-18.609,0.242
		c-5.206-0.021-10.231-1.36-15.464-1.607c-11.29-0.533-23.036-3.117-34.297-1.678c-11.019,1.407-22.267,1.647-33.375,1.944
		c-21.554,0.577-43.332,0.305-64.711-1.561c-1.747-0.153-2.741,0.886-3.02,2.182c-5.831,0.286-11.656,0.787-17.54,1.691
		c-4.442,0.683-9.049,2.109-13.463,1.186c-2.627-0.55-5.128-1.673-7.768-2.129c-2.409-0.416-4.612,0.159-6.961,0.219
		c-2.103,0.054-3.832,1.092-4.874,2.617c-0.637-0.066-1.272-0.137-1.911-0.19c-8.554-0.698-16.97-2.823-25.546-3.581
		c-8.325-0.736-16.047,2.616-24.176,2.45c-8.871-0.18-16.506-0.927-25.356,0.913c-10.13,2.107-24.353-3.998-34.098,0.045
		c-4.243-2.204-9.249-2.465-13.407,0.608c-4.613,3.409-5.895,9.052-4.781,14.452c1.144,5.541,2.476,10.906,3.187,16.565
		c0.749,5.958,0.311,11.748,0.343,17.723c0.033,6.351,1.164,12.625,2.063,18.893c0.869,6.062,1.823,12.038,3.255,17.882
		c-0.05,1.248-0.097,2.495-0.177,3.75c-0.139,2.2-0.236,4.404-0.345,6.606c-3.339,0.608-6.483,3.518-5.477,7.199
		c1.126,12.348,0.071,24.839,0.316,37.233c0.261,13.199,0.465,26.401,0.801,39.599c-0.429,5.367-0.77,10.778-0.977,16.119
		c-0.213,5.501,0.153,11.42,2.583,16.351c0.058,2.442,0.083,4.883,0.025,7.321c-0.163,6.784-0.49,14.542,0.635,21.78
		c-0.112,0.139-0.222,0.287-0.334,0.43c-1.411,1.236-2.287,2.79-2.717,4.459c-2.339,1-3.234,4.593-1.344,6.745
		c1.126,1.282,2.528,2.474,4.06,3.56c1.149,1.217,2.582,2.117,4.226,2.517c2.349,1.162,4.796,2.048,7.081,2.508
		c6.962,1.399,13.959-0.366,20.925,0.768c7.183,1.169,14.842,3.413,22.086,1.074c2.525-0.814,4.911-2.022,6.991-3.583
		c1.531-0.146,3.023-0.296,4.641-0.057c5.148,0.763,9.979,2.287,15.248,2.438c5.535,0.159,11.022,0.61,16.524,0.798
		c5.178,0.175,10.321-1.35,15.464-1.77c6.188-0.507,9.849-5.106,10.04-11.125c0.179-5.672-6.613-10.43-11.769-7.811
		c-0.688-0.024-1.377-0.006-2.064,0.033c-0.671-1.722-2.228-3.137-4.674-3.351c-9.012-0.789-17.764,1.068-26.73,0.393
		c-4.248-0.319-8.262-0.173-12.484,0.282c-4.84,0.522-7.951-0.001-12.531-1.123c-4.815-1.179-9.8-1.045-14.694-1.604
		c-2.97-0.339-5.853-0.726-8.755-0.904c0.006-1.344,0.024-2.685,0.092-4.011c0.73-3.371,0.294-7.204,0.459-10.588
		c0.232-4.741,0.253-9.494,0.236-14.238c-0.034-9.224,0.169-18.463-0.542-27.668c-0.721-9.351-1.824-18.657-2.447-28.018
		c-0.182-2.722-0.524-5.426-0.838-8.133c0.816-4.482,0.759-9.049,0.323-13.851c0.553-3.989,0.826-8.054,1.174-12.223
		c0.845-10.115,0.654-20.324,0.6-30.484c-0.05-9.665-0.618-19.371,0.077-29.018c0.656-9.104,1.022-18.68,0.096-27.77
		c-0.003,0-0.004,0-0.006,0.001c0.003-0.521-0.04-1.024-0.137-1.5c0.782-0.148,1.558-0.309,2.314-0.501
		c2.602,0.3,4.642,0.709,7.479,0.238c2.656-0.44,5.071-1.639,7.642-2.164c6.807-1.391,13.943-1.287,20.853-1.713
		c2.631-0.163,5.181-0.785,7.813-0.907c2.876-0.132,5.525,0.705,8.389,0.855c6.768,0.354,13.91-0.663,20.737-0.784
		c2.793-0.049,5.714-0.627,8.169-0.242c3.446,0.54,6.508,1.252,10.074,1.055c3.114-0.173,6.219-0.382,9.332-0.528
		c2.3-0.108,4.275-0.683,6.271-1.302c2.166,0.831,4.418,1.362,6.697,1.463c10.608,0.463,21.394-3.432,32.086-3.634
		c12.143-0.228,24.309,0.009,36.453,0.018c11.577,0.009,23.031,1.413,34.588,1.647c5.588,0.113,11.104-0.499,16.678-0.738
		c6.242-0.267,12.275,1.27,18.478,1.913c9.031,0.937,18.235,0.941,27.553,2.94c10.053,2.157,20.686,0.609,30.831,1.629
		c12.101,1.215,24.199,1.041,36.36,0.959c6.634-0.045,13.601-0.68,20.185-0.107c5.511,0.479,10.68,2.116,15.997,3.567
		c5.529,1.508,11.403,2.375,16.473-1.219c0.885-0.628,1.304-1.087,1.186-1.287c1.062,0.067,2.258,0.301,3.215,0.134
		c0.19-0.034,0.372-0.072,0.555-0.11c-0.482,2.899-0.318,5.967-0.427,8.969c-0.088,2.426-0.058,4.85,0.018,7.275
		c-0.376,5.494-1.176,10.983-1.307,16.496c-0.055,2.332-0.136,4.665-0.227,6.997c-0.274,4.185-0.531,8.372-0.859,12.571
		c-0.729,9.322-1.376,18.71-2.348,28.01c-0.808,7.73-2.034,16.869-0.391,24.502c0.006,0.029,0.019,0.053,0.025,0.082
		c-0.374,1.367-0.667,2.762-0.793,4.238c-0.329,3.839-0.649,7.645-1.077,11.477c-0.938,8.407-0.889,16.917-1.101,25.366
		c-0.203,8.098-0.7,16.297-1.355,24.37c-0.714,8.798-0.526,17.521-0.956,26.33c-0.028,0.557,0.008,1.098,0.074,1.629
		c-0.113,1.243-0.228,2.477-0.353,3.681c-0.125,1.205-0.146,2.363-0.12,3.501c-0.349,0.042-0.7,0.086-1.05,0.166
		c-2.539,0.585-3.787,1.659-6.372,1.607c-2.946-0.057-5.555-0.304-8.49,0.501c-5.435,1.489-9.204,1.939-14.815,0.589
		c-7.168-1.725-14.383-1.407-21.691-1.599c-6.014-0.158-11.13,5.228-11.13,11.13c0,6.586,5.131,10.443,11.13,11.13
		c6.172,0.707,12.175,0.939,18.249,2.172c6.436,1.307,12.837,1.457,19.363,0.777c3.733-0.39,9.366-1.276,14.498-3.129
		c6.27,1.952,11.023,6.013,18.043,2.46c0.04-0.02,0.077-0.045,0.117-0.067c4.654,0.213,9.777-2.987,11.471-7.51
		c2.162-5.778,2.713-12.762,2.89-19.021c0.738-2.754,0.78-5.816,0.783-9.262c0.003-4.685,0.401-8.663-0.287-12.818
		c7.087-3.666,6.956-11.751,7.71-19.187c0.906-8.931,0.11-17.458-0.464-26.371c-1.118-17.367-1.595-34.798-1.674-52.203
		c-0.015-3.27-0.021-6.543-0.029-9.816c0.023-0.305,0.057-0.606,0.077-0.913C480.968,109.202,480.795,97.276,481.646,85.434z"/>
	<path style="fill:#C18140;" d="M314.609,262.105c-7.667-7.213-21.665-0.372-30.83,0.627c-5.723,0.623-11.343-0.918-17.132-0.185
		c-5.771,0.73-11.061,0.865-16.894,0.821c-5.642-0.043-11.2,1.086-16.736,1.145c-2.654,0.028-5.165-0.692-7.846-0.482
		c-3.089,0.243-6.033,0.878-9.139,0.995c-4.923,0.185-9.837,0.395-14.76,0.499c-3.837,0.083-8.576,0.045-11.791,2.474
		c-6.04,4.56-0.724,14.645,6.115,10.461c2.021-1.237,7.265,0.511,9.533,0.762c5.627,0.623,11.603,0.856,17.235,0.3
		c5.361-0.528,10.441,0.769,15.83,0.256c5.832-0.555,11.781,0.029,17.626,0.344c5.236,0.281,10.231-0.928,15.421-0.857
		c5.913,0.081,11.22,1.324,17.201,0.466c9.499-1.362,23.681-3.371,27.156-13.886C316.011,264.588,315.561,263,314.609,262.105z"/>
</g>
<g>
	<path style="fill:#9E6226;" d="M462.028,68.147c-0.279-7.642-0.482-14.702-3.419-21.728c-1.063-2.543-4.335-4.121-6.559-1.732
		c-0.223,0.24-0.446,0.479-0.669,0.719c-1.049,1.128-1.215,2.5-0.806,3.665c-2.334,14.367-1.567,29.557-2.733,44.047
		c-1.422,17.652-2.277,35.302-4.06,52.911c-1.7,16.794-0.693,33.779-2.161,50.569c-0.656,7.507-1.548,15.138-1.113,22.685
		c0.484,8.388,2.312,16.853,3.945,25.056c0.392,1.969,3.37,1.831,3.847,0c2.119-8.131,5.83-15.804,7.494-24.071
		c1.519-7.548,2.053-15.039,2.495-22.69c0.992-17.137-0.118-34.413,1.247-51.547c1.373-17.212,1.639-34.44,2.568-51.69
		C462.577,85.582,462.346,76.903,462.028,68.147z"/>
	<path style="fill:#9E6226;" d="M441.211,33.17c-4.13-1.065-8.495-1.731-12.573-2.91c-6.052-1.75-11.186-4.295-17.643-4.707
		c-5.892-0.374-11.832,0.474-17.718-0.121c-6.538-0.661-12.296-0.613-18.852-0.228c-5.67,0.333-11.648,2.037-17.285,1.746
		c-6.934-0.358-13.836-2.133-20.803-2.575c-13.31-0.842-26.257,1.972-39.476,2.904c-6.445,0.454-12.366,1.111-18.834,0.441
		c-7.218-0.748-14.591-0.445-21.837-0.284c-6.494,0.144-13.055,0.664-19.548,0.497c-6.058-0.156-11.863-0.849-17.967-0.653
		c-6.847,0.218-13.703,1.065-20.552,1.063c-7.047-0.004-14.051-0.702-21.146-0.638c-6.614,0.061-13.237,0.071-19.837,0.542
		c-6.72,0.48-13.297-0.119-20.031,0.035c-7.107,0.161-14.014,0.106-21.061,1.224c-7.234,1.146-14.102,0.553-21.325,1.104
		c-13.049,0.996-26.099,1.483-37.54,8.538c-2.162,1.334-2.237,4.551,0,5.869c4.418,2.604,8.387,2.975,13.411,1.881
		c6.216-1.354,12.185-1.973,18.525-2.495c6.131-0.504,12.052-0.546,18.199-0.687c6.675-0.154,13.188-1.681,19.881-1.605
		c6.153,0.069,12.589-0.037,18.69,0.76c6.851,0.895,13.666,0.086,20.565,0.058c13.393-0.054,26.803,1.531,40.134,0.909
		c5.993-0.279,11.995-0.537,17.995-0.484c6.485,0.057,12.836,1.128,19.368,1.091c6.937-0.04,13.874-0.153,20.81-0.032
		c7.068,0.125,14.034,1.46,21.064,1.446c12.984-0.025,25.758-2.451,38.678-3.011c6.319-0.274,12.643,0.03,18.924,0.751
		c7.007,0.804,13.426,2.332,20.499,1.3c6.59-0.962,13.366-1.866,20.046-1.961c6.673-0.095,13.142,1.34,19.909,0.934
		c3.152-0.189,6.387-0.648,9.537-0.25c3.299,0.417,6.483,1.481,9.81,1.819c5.469,0.556,10.941-0.784,16.431-0.809
		C446.17,44.604,447.674,34.837,441.211,33.17z"/>
	<path style="fill:#9E6226;" d="M26.844,35.358c0.309-3.607-5.829-4.496-6.385-0.864c-2.757,17.99-4.202,36.367-4.515,54.567
		c-0.327,18.962-1.47,37.868-1.908,56.794c-0.218,9.419-0.604,18.897-1.266,28.296c-0.652,9.245-2.364,18.483-2.667,27.72
		c-0.127,3.89,0.905,7.729,0.992,11.616c0.106,4.743,0.189,9.228,0.659,13.967c0.908,9.133-0.045,18.72,2.174,27.683
		c0.978,3.954,6.228,4.219,8.275,1.082c1.997-3.061,2.097-6.155,2.254-9.729c0.224-5.11,0.506-10.243,0.55-15.358
		c0.077-8.784-0.556-17.643-1.33-26.376c-0.4-4.51,0.608-9.626,0.809-14.179c0.209-4.712,0.997-9.383,1.289-14.094
		c0.581-9.373,0.589-18.87,0.605-28.26c0.033-18.568,0.267-37.022-0.325-55.609C25.452,73.684,25.228,54.227,26.844,35.358z"/>
	<path style="fill:#9E6226;" d="M86.633,269.901c-10.346,0.764-21.24-1.05-31.56-1.852c-4.964-0.386-9.631-0.937-14.541-1.63
		c-3.919-0.553-9.118,0.025-12.731-1.664c-2.89-1.352-5.726-0.656-7.58,1.988c-0.198,0.282-0.397,0.565-0.595,0.847
		c-0.079-0.081-0.159-0.163-0.24-0.243c-1.072-1.092-2.693,0.552-1.672,1.672c2.184,2.394,3.4,6.086,6.177,7.927
		c2.175,1.442,5.788,2.031,8.326,2.561c6.063,1.263,12.247,2.388,18.424,2.815c14.204,0.985,27.307,4.475,38.342-6.745
		C90.884,273.644,89.603,269.682,86.633,269.901z"/>
	<path style="fill:#9E6226;" d="M450.389,273.196c-4.671-3.492-11.225-7.377-16.985-8.562c-5.71-1.175-11.672-2.887-17.529-2.895
		c-6.84-0.009-13.779,0.238-20.466,1.749c-7.536,1.702-14.345,4.08-22.157,4.393c-5.777,0.231-5.826,8.926,0,9.012
		c6.322,0.093,12.424-0.746,18.662-1.649c7.236-1.046,14.388-0.939,21.679-0.767c5.743,0.136,11.565,1.877,17.254,2.799
		c6.412,1.04,11.495,1.813,18.053,1.426C451.984,278.521,452.709,274.93,450.389,273.196z"/>
</g>
<g>
	<path style="fill:#D4A375;" d="M296.119,25.4c-5.677-0.843-11.259-2.493-17.041-2.564c-6.224-0.078-12.526,0.536-18.779,0.562
		c-13.067,0.057-25.683,0.846-38.767-0.193c-5.438-0.432-10.601-0.99-16.088-0.87c-6.535,0.142-12.996,1.291-19.564,1.237
		c-5.452-0.045-10.807-0.956-16.275-0.803c-6.141,0.171-12.139,0.693-18.254,1.22c-0.564,0.049-0.577,0.86,0,0.886
		c11.153,0.526,22.229,1.862,33.364,2.461c6.235,0.335,12.28-0.427,18.469-0.77c5.863-0.324,11.496,0.359,17.303,0.864
		c12.279,1.065,23.993,1.128,36.263,0.14c6.375-0.513,12.734-0.561,19.096-1.292c6.768-0.778,13.282,1.3,20.075,0.575
		C296.67,26.772,297.015,25.534,296.119,25.4z"/>
	<path style="fill:#D4A375;" d="M440.064,25.457c-8.157-2.58-15.822-3.83-24.404-4.035c-7.503-0.179-14.776,1.045-22.228,0.987
		c-7.943-0.062-15.755-2.948-23.709-2.437c-3.149,0.202-5.957,1.282-8.9,2.349c-4.07,1.475-7.596,2.283-11.95,2.537
		c-1.614,0.093-1.619,2.423,0,2.511c7.328,0.403,14.776-1.185,22.055,0.193c7.512,1.422,14.798,3.718,22.504,4.004
		c7.326,0.274,14.88-0.541,22.228-0.779c8.003-0.261,16.612-0.437,24.404-2.337C441.609,28.073,441.47,25.902,440.064,25.457z"/>
	<path style="fill:#D4A375;" d="M474.371,146.491c0.958-29.129,2.824-58.471,2.43-87.598c-0.031-2.377-3.656-2.38-3.694,0
		c-0.459,29.291-5.735,58.392-7.836,87.598c-1.031,14.351-3.088,28.554-3.65,42.952c-0.501,12.81-1.185,25.502,2.036,37.888
		c0.325,1.252,2.042,1.133,2.422,0c1.758-5.249,5.377-10.11,5.807-15.721c0.528-6.91-0.052-14.033,0.142-20.974
		C472.439,175.897,473.887,161.217,474.371,146.491z"/>
	<path style="fill:#D4A375;" d="M42.254,138.162c0.202-12.97,0.087-25.947,0.559-38.909c0.233-6.401-0.354-12.757-0.269-19.149
		c0.045-3.332,1-7.164-1.184-10.004c-0.847-1.101-2.752-0.066-1.914,1.118c2.256,3.185,0.605,12.416,0.445,16.061
		c-0.28,6.412-1.591,12.796-2.035,19.222c-0.831,12.039-1.286,24.104-2.161,36.142c-1.694,23.308-5.496,48.749,1.872,71.455
		c0.613,1.889,3.444,2.044,3.989,0c1.522-5.715,0.224-11.105-0.572-16.831c-0.895-6.426-0.553-13.019-0.537-19.495
		C40.479,164.511,42.049,151.39,42.254,138.162z"/>
</g>
<path d="M508.932,462.391c-0.864-11.218-10.533-10.767-19.338-10.085c-0.954,0.074-1.908,0.161-2.862,0.248
	c-0.357-4.379-1.855-8.775-3.758-12.462c-3.122-6.044-7.823-11.926-12.665-16.697c-3.11-3.065-6.793-6.001-9.572-9.508
	c6.613-4.878,13.465-11.382,15.351-19.392c0.68-2.883,0.441-5.682,0.498-8.602c0.069-3.543,0.986-6.746,1.572-10.212
	c0.968-5.726-0.045-11.172-0.822-16.859c-0.251-1.834-0.483-3.818-1.447-5.447c-0.764-1.291-2.201-2.245-2.756-3.38
	c-1.133-2.321-0.846-4.443-2.423-6.759c-1.974-2.897-3.523-5.479-5.173-8.607c-4.606-8.735-16.021-15.567-24.812-19.521
	c-11.159-5.018-24.845-7.18-35.113,0.823c-1.075,0.838-2.133,1.701-3.182,2.573c-0.608,0.121-1.227,0.265-1.874,0.46
	c-4.321,1.305-8.645,3.342-12.129,6.301c-0.211-0.299-0.414-0.604-0.63-0.896c-1.335-1.793-3.032-3.63-4.969-5.36
	c5.333-7.062,8.374-17.459,8.759-23.998c0.118-2.012-0.064-4.013-0.405-5.994c2.828-0.137,5.658-0.315,8.479-0.414
	c8.977,0.368,17.854,0.611,26.768-0.595c3.813-0.195,7.629-0.396,11.462-0.526c0.954-0.033,1.925-0.064,2.896-0.096
	c5.542,0.524,11.113,1.455,16.568,0.825c4.04,0.762,8.012,1.771,12.214,1.391c7.818-0.709,14.041-5.424,16.143-13.082
	c1.788-6.514,0.405-13.301,0.875-19.92c0.811-11.413,3.782-22.453,3.845-33.963c0.028-5.17-0.107-10.354,0.026-15.523
	c0.151-5.824,1.367-11.525,1.78-17.324c0.381-5.342,0.081-10.727,0.846-16.043c0.849-5.9,1.449-11.273,1.147-17.265
	c-0.276-5.486-0.066-9.462,1.29-14.728c1.238-4.807,0.17-8.18-0.947-12.759c-1.254-5.14-0.385-10.97-0.374-16.235
	c0.011-5.353-0.134-10.632,0.696-15.936c3.34-21.368,0.789-42.985-1-64.307c-0.688-8.217-5.894-18.105-13.42-21.902
	c-10.113-5.104-21.878-1.379-32.571-3.278c-21.699-3.853-44.528-0.754-66.448-0.518c-10.393,0.112-20.34-2.448-30.647-2.699
	c-11.51-0.28-23.07,0.087-34.583,0.124c-23.889,0.076-47.893,1.185-71.639-1.29c-10.892-1.136-22.17-0.134-33.111-0.081
	c-11.774,0.057-23.548,0.12-35.322,0.165c-12.305,0.047-24.618,0.197-36.923,0.112c-5.445-0.038-10.926-0.34-16.367-0.03
	c-5.786,0.33-11.442,1.773-17.23,1.978c-11.302,0.401-22.326,2.268-33.681,2.21C61.363,7.254,51.116,9.532,40.53,9.304
	c-5.01-0.108-9.847-0.17-14.736,1.041c-4.149,1.026-9.311-0.081-13.065,2.123c-6.786,3.983-4.551,13.155-4.806,19.584
	c-0.46,11.603-0.789,23.192,0.25,34.779c1.005,11.216,2.615,22.366,2.854,33.64c0.247,11.634,0.698,23.282,0.789,34.919
	c0.088,11.318-1.563,22.022-2.68,33.213c-0.531,5.315-0.129,10.631-0.03,15.956c0.105,5.742-0.933,11.017-1.625,16.679
	c-1.341,10.96-0.402,22.249-0.213,33.263c0.184,10.757,0.709,21.303-1.111,31.96c-1.227,7.184-6.629,15.081-1.376,21.88
	c4.781,6.189,11.048,2.743,17.128,1.723c4.297-0.721,9.18,0.039,13.529-0.001c6.119-0.055,12.242,0.014,18.36-0.105
	c11.261-0.219,22.346-2.083,33.636-2.059c5.367,0.011,10.751,0.132,16.115-0.079c2.622-0.103,5.193-0.518,7.759-0.948
	c-0.884,4.676-1.05,9.467,1.253,12.919c4.98,7.464,9.901,5.241,14.186,0.116c-0.252,3.533,0.401,6.947,3.122,10.185
	c-5.526,2.876-11.086,5.605-14.885,10.957c-0.809,1.141-1.589,2.355-2.324,3.617c-5.039-4.067-11.047-7.355-16.172-9.66
	c-11.159-5.018-24.845-7.18-35.113,0.823c-1.075,0.838-2.133,1.701-3.182,2.573c-0.608,0.121-1.227,0.265-1.874,0.46
	c-5.782,1.746-11.571,4.801-15.341,9.624c-3.858,4.936-4.952,10.887-5.004,17.024c-0.03,3.534,0.369,7.112,0.045,10.638
	c-0.368,3.994-2.036,7.019-3.801,10.553c-1.059,2.121-2.402,4.443-3.162,6.697c-0.474,1.406-0.764,3.215-0.642,4.728
	c-0.122,0.149-0.266,0.277-0.372,0.443c-3.655,4.736-1.684,13.19,2.1,17.282c3.279,3.544,9.092,5.465,14.85,5.476
	c0.057,1.712,0.246,3.363,0.523,4.896c-2.303,1.7-4.811,3.282-6.516,5.652c-3.46,4.814-6.609,10.077-9.272,15.375
	c-4.173,8.301-6.865,17.458-6.448,26.677c-2.527-0.13-5.36,0.446-7.708,0.758C4.326,456.17,0.51,466.268,0.056,476.45
	c-0.396,8.876,1.19,21.113,8.404,27.234c3.787,3.214,8.36,3.417,13.084,3.621c7.657,0.332,14.634,2.95,22.373,1.697
	c3.618-0.586,7.121-1.471,10.825-1.319c3.587,0.148,7.063,1.19,10.638,1.519c7.601,0.7,15.428-0.129,23.045-0.344
	c14.826-0.421,29.427-3.935,44.306-2.325c3.438,0.372,6.653,0.184,10.077,0.043c3.547-0.146,5.888,1.174,9.178,1.867
	c5.912,1.246,10.725-2.668,13.151-7.73c5.686-11.861,0.492-26.255-0.444-38.422c-0.864-11.218-10.533-10.767-19.338-10.085
	c-0.954,0.074-1.908,0.161-2.862,0.248c-0.357-4.379-1.855-8.775-3.758-12.462c-3.122-6.044-7.823-11.926-12.665-16.697
	c-3.11-3.065-6.793-6.001-9.571-9.508c6.613-4.878,13.465-11.382,15.35-19.392c0.68-2.883,0.441-5.682,0.498-8.602
	c0.069-3.543,0.986-6.746,1.572-10.212c0.13-0.769,0.219-1.532,0.284-2.291c8.741-0.024,17.483,0.223,26.227,0.34
	c11.51,0.153,23.021,0.272,34.529,0.532c2.293,0.052,4.588,0.025,6.883,0.004c-0.353,1.286-0.557,2.775-0.454,4.064
	c-0.122,0.149-0.266,0.277-0.372,0.443c-3.655,4.736-1.684,13.19,2.1,17.282c3.279,3.543,9.092,5.465,14.85,5.476
	c0.057,1.712,0.246,3.363,0.523,4.896c-2.303,1.7-4.811,3.281-6.516,5.652c-3.46,4.814-6.609,10.077-9.272,15.375
	c-4.173,8.301-6.865,17.458-6.448,26.677c-2.527-0.13-5.36,0.446-7.708,0.758c-11.246,1.486-15.063,11.584-15.516,21.766
	c-0.395,8.876,1.19,21.113,8.404,27.234c3.787,3.214,8.36,3.417,13.083,3.621c7.657,0.332,14.634,2.951,22.373,1.697
	c3.618-0.586,7.12-1.471,10.825-1.319c3.587,0.146,7.063,1.19,10.638,1.519c7.603,0.7,15.428-0.129,23.045-0.344
	c14.826-0.421,29.427-3.935,44.306-2.325c3.438,0.372,6.653,0.184,10.077,0.043c3.548-0.146,5.888,1.174,9.179,1.867
	c5.912,1.246,10.725-2.668,13.151-7.73c5.686-11.861,0.492-26.255-0.444-38.422c-0.864-11.218-10.533-10.767-19.338-10.085
	c-0.954,0.074-1.908,0.161-2.862,0.248c-0.357-4.379-1.855-8.775-3.758-12.462c-3.122-6.044-7.823-11.926-12.666-16.697
	c-3.11-3.065-6.793-6.001-9.572-9.508c6.613-4.878,13.465-11.382,15.351-19.392c0.68-2.883,0.441-5.682,0.498-8.602
	c0.047-2.383,0.477-4.613,0.932-6.874c2.871,0.298,5.666,0.63,8.151,1.31c3.8,1.04,7.458,1.561,11.375,0.881
	c1.945-0.338,3.816-1.171,5.764-1.442c2.709-0.378,5.458,0.148,8.172,0.164c9.84,0.058,19.132-3.724,28.983-3.782
	c1.336-0.008,2.677-0.005,4.018-0.001c-0.083,0.71-0.12,1.422-0.067,2.078c-0.122,0.149-0.266,0.277-0.372,0.443
	c-3.655,4.736-1.684,13.19,2.1,17.282c3.279,3.543,9.091,5.465,14.849,5.476c0.057,1.712,0.246,3.362,0.523,4.896
	c-2.303,1.7-4.811,3.281-6.516,5.652c-3.46,4.814-6.609,10.077-9.272,15.375c-4.173,8.301-6.865,17.458-6.448,26.677
	c-2.527-0.13-5.36,0.446-7.708,0.758c-11.246,1.486-15.063,11.584-15.516,21.766c-0.396,8.876,1.19,21.113,8.404,27.234
	c3.787,3.214,8.36,3.417,13.084,3.621c7.657,0.332,14.634,2.952,22.373,1.697c3.618-0.586,7.12-1.471,10.825-1.319
	c3.587,0.146,7.063,1.19,10.64,1.519c7.601,0.7,15.428-0.129,23.045-0.344c14.826-0.421,29.427-3.935,44.306-2.325
	c3.438,0.372,6.653,0.184,10.077,0.043c3.548-0.146,5.888,1.174,9.178,1.867c5.912,1.246,10.725-2.668,13.151-7.73
	C515.062,488.952,509.867,474.559,508.932,462.391z M464.365,395.906c0.295-1.533,0.289-2.939,0.26-4.423
	c0.899-1.135,1.531-2.517,1.885-4.007c0.122-0.134,0.245-0.267,0.364-0.403c-0.049,1.605-0.156,3.197-0.474,4.753
	c-0.382,1.875-1.195,3.482-2.247,4.93C464.222,396.472,464.31,396.193,464.365,395.906z M92.455,327.673
	c-0.461,0.235-0.898,0.537-1.311,0.89c-0.005-0.508-0.038-1.01-0.088-1.507C91.525,327.249,91.989,327.464,92.455,327.673z
	 M59.365,400.54c0.286,0.507,0.601,1.006,0.977,1.484c0.382,0.484,0.812,0.927,1.238,1.374c-1.208,0.189-2.485,0.424-3.335,0.828
	c0.216-0.888,0.011-2.452-0.184-4.002C58.491,400.352,58.925,400.459,59.365,400.54z M48.909,368.056
	c0.419-4.29,1.624-8.562,3.018-12.692c-0.763,3.194-1.416,6.412-1.958,9.635c-0.153,0.91-0.318,1.881-0.482,2.877
	c-0.194,0.178-0.39,0.356-0.582,0.535C48.901,368.251,48.901,368.124,48.909,368.056z M42.751,386.856
	c-2.147-0.233-2.79-0.632-2.91-1.887c0.077-0.135,0.139-0.271,0.207-0.407c1.58,1.057,3.608,1.65,6.201,1.597
	c0.714-0.015,1.42-0.116,2.121-0.257c0.032,0.266,0.061,0.533,0.1,0.797C47.28,386.993,44.142,387.008,42.751,386.856z M139.7,463
	c2.181-0.238,3.966-0.465,5.024-0.536c2.958-0.199,5.89-0.294,8.852-0.228c2.68,0.059,0.693,0.637,0.659,0.054
	c0.151,2.672,0.217,4.891,0.849,7.55c1.306,5.507,1.425,11.218,1.416,16.877c-0.004,2.368,0.178,5.338-0.71,7.597
	c-1.444,3.674-2.931,2.322-6.078,1.546c-4.802-1.184-9.842,0.139-14.703-0.229c-6.833-0.518-12.999-0.78-19.869-0.253
	c-11.792,0.905-23.546,1.819-35.361,2.346c-6.199,0.277-12.072,0.416-18.191-0.739c-5.57-1.05-10.739-1.021-16.335-0.166
	c-6.523,0.997-11.522-0.095-17.946-1.023c-3.548-0.512-9.104,0.823-11.856-1.852c-5.23-5.083-6.069-19.821-2.863-25.904
	c1.339-2.539,2.799-2.708,5.672-3.226c1.075-0.193,2.171-0.257,3.248-0.47c0.45-0.09,3.264-0.647,2.568-0.73
	c0.741,0.019,1.469,0.122,2.199,0.229c0.89,0.643,1.945,1.036,2.965,0.944c1.485-0.134,3.277-0.691,4.763-0.627
	c1.832,0.079,3.339,0.918,5.205,0.88c4.481-0.092,8.335-2.093,12.96-1.944c4.299,0.139,8.524,0.551,12.811-0.033
	c4.236-0.576,8.292-1.903,12.58-2.234c4.748-0.367,9.052,0.412,13.691,1.301c4.628,0.886,8.987,0.823,13.692,0.797
	c4.574-0.025,8.551,1.643,13.045,2.071c3.987,0.381,7.99-0.187,11.988,0.102C133.548,465.358,137.27,465.084,139.7,463z
	 M122.049,434.712c4.54,5.384,9.448,11.352,9.948,18.647c-0.721,0.049-1.44,0.106-2.162,0.141c-2.192,0.108-4.359,0.345-6.543,0.479
	c-1.167,0.071-3.547-0.56-2.849,0.483c-1.248-1.867-3.49-1.721-4.665-0.338c-2.441-0.569-4.796-1.349-7.349-1.547
	c-4.854-0.374-9.586,0.436-14.404-0.506c-7.575-1.481-14.494-2.262-22.206-1.033c-3.698,0.59-7.26,1.737-11.018,1.868
	c-3.922,0.137-7.837-0.511-11.758-0.395c-3.423,0.101-6.794,1.993-10.05,2.005c-1.493,0.005-3.115-1.113-4.723-1.074
	c-0.237,0.006-0.47,0.048-0.706,0.077c-0.643-9.537,3.432-19.026,7.536-27.485c2.152-4.437,4.353-8.993,7.092-13.106
	c4.208,5.163,12.513,4.428,18.433,1.514c2.233-1.099,5.512-3.842,8.112-2.767c1.552,0.642,2.467,2.89,3.539,4.173
	c2.746,3.288,6.667,5.684,11.082,5.626c5.115-0.066,8.233-4.237,12.831-5.15c1.35-0.267,2.646-0.148,3.926,0.034
	C108.019,423.641,117.698,429.554,122.049,434.712z M434.493,273.462c-10.193,0.985-20.217,1.727-30.464,1.861
	c-4.293,0.055-8.559,0.078-12.818,0.609c-1.233-0.019-2.466-0.045-3.699-0.059c-1.286-4.498-2.388-9.065-4.239-13.361
	c-0.12-0.276-0.251-0.548-0.373-0.823c6.462-0.681,12.908-1.725,19.285-2.614c4.051-0.565,8.084-0.405,11.975-0.579
	c4.352,3.322,9.085,5.309,15.542,4.493c3.267-0.412,6.923-1.33,10.021-2.979c1.333,1.107,2.79,2.112,4.618,3.002
	c4.572,2.225,8.649,4.216,12.386,7.787c0.906,0.865,2.017,1.961,3.254,3.047C451.396,272.766,443.396,272.602,434.493,273.462z
	 M476.769,27.156c1.544,2.755,2.162,6.349,2.21,9.117c0.076,4.401,0.787,8.617,1.486,12.961c0.822,5.101,0.625,10.253,0.768,15.405
	c0.56,20.185-2.665,39.909-2.172,60.103c0.052,2.136,0.227,4.277,0.635,6.377c0.327,1.678,1.515,3.732,1.579,5.429
	c0.062,1.66-1.111,3.434-1.519,5.009c-0.706,2.714-0.837,5.581-0.832,8.374c0.009,4.729,0.729,9.457,0.463,14.188
	c-0.289,5.145-1.558,10.191-1.818,15.366c-0.517,10.331-2.142,20.693-2.16,31.02c-0.019,10.58-0.19,20.765-1.847,31.243
	c-1.267,8.016-2.17,15.673-1.987,23.768c0.052,2.319,0.072,4.205-0.213,5.655c-2.003-1.144-4.463-1.531-6.397-3.182
	c-2.835-2.422-5.257-5.208-8.404-7.281c-3.574-2.355-7.516-3.462-11.45-5.02c-0.062-0.024-0.118-0.053-0.18-0.079
	c1.059-1.528,1.746-3.333,1.894-5.458c0.322-4.618-1.572-9.253-1.78-13.877c-0.264-5.876,0.189-11.247,1.149-17.013
	c1.914-11.501-0.619-23.55,0.013-35.18c0.281-5.186,1.56-10.258,1.814-15.45c0.304-6.19,0.933-11.985,2.053-18.092
	c2.083-11.365,2.109-23.086,3.021-34.6c0.501-6.332,0.42-12.666,0.405-19.013c-0.015-6.343,0.586-12.164,1.415-18.433
	c0.733-5.556-0.466-9.712-1.507-15.06c-0.818-4.202-0.555-8.522-0.999-12.773c0.349-0.105,0.704-0.188,1.049-0.305
	c1.459-0.497,2.165-1.785,2.119-3.041C463.437,41.889,470.967,34.954,476.769,27.156z M25.062,22.59
	c5-0.936,9.172-1.662,14.317-1.479c5.147,0.183,10.096,0.256,15.208-0.432c9.935-1.338,19.601-0.559,29.563-1.083
	c10.311-0.542,21.021-1.338,31.231-2.793c10.318-1.471,20.734-0.705,31.125-0.671c22.467,0.074,44.933,0.17,67.399,0.279
	c10.144,0.049,20.599-0.808,30.685,0.39c10.466,1.243,20.508,1.707,31.064,1.742c21.94,0.074,43.882,0.26,65.822,0.39
	c9.907,0.058,19.232,1.684,29.048,2.47c9.937,0.794,19.924-0.026,29.863-0.374c10.229-0.358,20.51-0.338,30.745-0.271
	c10.626,0.071,20.784,2.2,31.475,2.005c1.983-0.037,4.533-0.229,6.929,0.014c-1.682,2.09-3.283,4.261-5.041,6.269
	c-2.904,3.315-6.138,6.139-9.388,9.09c-0.633,0.575-3.023,3.247-5.444,5.573c-4.503-0.657-8.981-0.11-13.705,0.081
	c-6.942,0.281-14.056,0.518-20.918-0.768c-12.846-2.409-24.806-2.662-37.871-2.053c-6.242,0.291-12.469,0.315-18.716,0.316
	c-7.115,0-13.966,0.547-20.891-1.121c-6.25-1.505-12.807-1.072-19.185-0.922c-7.294,0.17-14.102-0.611-21.327-1.388
	c-6.378-0.686-12.897-0.332-19.305-0.35c-7.333-0.023-14.248-1.02-21.513-1.7c-13.865-1.296-28.361-0.159-42.297-0.187
	c-13.988-0.028-27.795-0.151-41.708,1.328c-13.932,1.481-28.468,0.775-42.457,0.262c-15.284-0.56-30.397,3.315-45.677,4.046
	c-7.023,0.335-13.871-0.209-20.731,1.503c-4.867,1.214-9.677,1.413-14.224,3.262c-0.055-0.042-0.12-0.068-0.179-0.103
	c-1.186-1.789-3.028-3.042-4.744-4.766c-3.046-3.057-5.849-6.349-8.955-9.347c-2.819-2.72-5.888-5.237-9.092-7.497
	c-0.822-0.58-1.652-1.082-2.488-1.55C24.14,22.724,24.598,22.676,25.062,22.59z M18.726,271.525
	c1.552-6.135,2.177-12.526,2.296-18.844c0.189-10.067-0.245-20.224-0.557-30.288c-0.151-4.857-0.356-9.721-0.17-14.578
	c0.198-5.189,1.441-10.148,1.913-15.295c0.453-4.935,0.083-9.885-0.044-14.824c-0.145-5.585,0.58-10.776,1.36-16.274
	c1.447-10.19,1.652-20.46,1.47-30.735c-0.373-21.027-1.282-41.77-3.322-62.699c-1.019-10.457-1.123-20.842-1.537-31.325
	c-0.129-3.279-0.329-6.546-0.526-9.816c0.827,0.87,1.692,1.723,2.638,2.54c3.313,2.866,6.657,5.614,9.671,8.805
	c3.51,3.714,7.981,11.321,13.411,13.029c-1.478,8.965-1.046,18.148-1.123,27.243c-0.091,10.752,0.096,21.496,0.217,32.248
	c0.241,21.461,0.294,42.901-0.021,64.362c-0.076,5.125-0.386,10.267-0.281,15.392c0.101,4.981,1.388,9.77,1.687,14.721
	c0.582,9.629-1.9,19.27,0.137,28.848c0.88,4.138,1.77,7.199,0.604,11.376c-0.594,2.126-1.324,4.415-1.195,6.668
	c-1.834,1.43-4.225,2.465-5.993,3.444c-2.707,1.499-5.104,3.326-7.683,5.022C26.807,263.747,22.73,267.532,18.726,271.525z
	 M104.696,276.198c-5.353,0.242-10.756-0.023-16.113-0.111c-10.521-0.174-20.761,1.178-31.242,1.567
	c-10.075,0.374-20.334,0.185-30.403-0.263c-0.988-0.044-1.958-0.066-2.919-0.058c5.081-5.056,10.255-9.871,15.775-14.599
	c2.34-2.005,5.227-3.673,7.644-5.719c3.455,3.645,10.243,3.572,14.913,3.589c9.781,0.037,19.695-1.202,29.464-0.33
	c3.357,0.299,6.41,1.136,9.794,0.707c0.733-0.093,1.446-0.175,2.145-0.247c-0.015,0.066-0.035,0.132-0.05,0.198
	c-1.173,5.211-0.884,11.946,3.495,15.04C106.37,276.074,105.536,276.16,104.696,276.198z M120.497,292.299
	c-0.179,0.256-0.327,0.474-0.463,0.677c0.168-0.342,0.347-0.738,0.524-1.189c0.251-0.637,0.402-1.352,0.509-2.102
	c0.127,0.362,0.286,0.724,0.439,1.084C121.185,291.287,120.849,291.796,120.497,292.299z M107.873,250.58
	c-2.378,0.199-4.684,0.625-7.218,0.881c-3.859,0.388-7.884-0.73-11.79-0.803c-9.204-0.173-18.383,0.782-27.577,0.705
	c-1.547-0.013-5.502,0.424-6.769-0.508c-0.115-0.43,0.303-1.347,0.406-1.745c0.797-3.084,1.607-5.957,1.348-9.182
	c-0.369-4.579-2.31-8.795-2.624-13.416c-0.333-4.891,0.087-9.82,0.192-14.712c0.195-9.218-2.238-18.041-2.271-27.259
	c-0.079-22.549-0.387-45.077-0.134-67.627c0.135-11.989,0.408-23.979,0.308-35.969c-0.083-9.853,0.514-19.908-1.097-29.642
	c4.394-0.719,8.708,0.407,13.17-0.521c6.866-1.427,13.29-0.995,20.281-1.16c13.562-0.32,26.95-3.893,40.428-3.973
	c13.705-0.081,27.428,0.878,41.143,0.379c6.571-0.238,13.047-1.566,19.618-1.812c7.139-0.267,14.341-0.032,21.486-0.039
	c14.295-0.014,28.591,0.033,42.886,0.008c6.464-0.011,12.638,1.43,19.057,1.818c6.769,0.41,13.669,0.077,20.451,0.086
	c6.717,0.009,13.195,1.457,19.871,1.812c7.048,0.373,14.13-0.611,21.18-0.151c6.159,0.402,11.622,2.307,17.901,2.15
	c6.896-0.174,13.799,0.048,20.698-0.066c14.625-0.24,28.508-1.653,42.962,1.261c6.907,1.392,13.934,1.576,20.955,1.376
	c4.071-0.117,8.251-0.066,12.341-0.45c-0.335,2.897-0.424,5.86-0.357,8.674c0.108,4.556,1.923,8.863,1.712,13.419
	c-0.238,5.182-1.923,10.2-2.119,15.416c-0.217,5.742,0.04,11.515-0.067,17.261c-0.198,10.55-1.44,21.148-2.053,31.682
	c-0.589,10.134-3.288,19.973-3.861,30.159c-0.272,4.841-1.449,9.572-1.837,14.403c-0.443,5.516-0.117,11.129-0.111,16.655
	c0.006,5.527,0.567,11.28-0.488,16.733c-0.875,4.522-1.892,8.616-2.026,13.276c-0.141,4.886-0.294,9.75,0.497,14.597
	c0.628,3.855,1.955,4.35-1.713,5.999c-1.215,0.546-2.374,0.958-3.5,1.223c-0.151-1.508-1.339-2.979-2.969-2.827
	c-2.288,0.213-4.587,0.279-6.889,0.298c-2.638-1.905-4.625-3.321-8.239-3.568c-2.334-0.159-3.901,1.659-4.227,3.689
	c-1.408,0.069-2.815,0.164-4.221,0.333c-8.073,0.968-16.245,2.503-24.387,3.154c-1.297-2.355-2.595-4.71-3.767-7.113
	c-2.298-4.715-4.459-9.414-8.765-12.649c-4.303-3.234-9.769-3.84-14.963-4.725c-5.315-0.905-10.628-1.343-15.999-0.721
	c-5.918,0.686-11.3,2.537-16.124,5.434c-7.55,3.065-14.703,8.926-19.663,14.612c-1.916,2.198-3.785,4.555-5.511,7.04
	c-13.318,0.009-26.635,0.014-39.953-0.019c-10.172-0.025-19.624,0.3-29.69,1.584c-5.579,0.711-11.39,0.971-17.174,1.026
	c-1.687-6.077-4.009-11.99-8.046-16.834c-5.128-6.154-12.839-11.932-20.262-14.955c-9.331-3.8-18.768-2.54-28.281-0.214
	c-2.417,0.591-4.758,1.305-7.03,2.145C129.361,227.563,115.114,238.044,107.873,250.58z M370.778,311.663
	c-0.156-0.054-0.31-0.117-0.466-0.168c0.009-0.01,0.018-0.02,0.026-0.03c-0.013,0.005-0.028,0.019-0.04,0.026
	c-0.328-0.107-0.657-0.192-0.985-0.285c-0.474-0.451-1.004-0.909-1.382-1.23c0.659-0.024,1.348-0.115,2.063-0.281
	c0.957-0.222,1.824-0.552,2.648-0.928c-0.575,0.906-1.517,1.819-2.302,2.698C370.533,311.383,370.676,311.482,370.778,311.663z
	 M352.571,243.89c0.237,0.043,0.47,0.079,0.71,0.124c2.179,0.407,3.378,0.856,4.414,1.909c-0.567,0.122-1.104,0.28-1.61,0.473
	C354.893,245.369,353.723,244.547,352.571,243.89z M355.396,308.433c-1.775,0.965-3.465,2.33-5.014,3.919
	c-0.112,0.115-0.874,0.875-1.657,1.668c-0.029-0.062-0.066-0.118-0.093-0.18c-0.354-0.589-0.709-1.147-1.07-1.687
	c2.206-0.624,4.388-1.611,6.472-2.993c0.414-0.274,0.798-0.577,1.2-0.862C355.289,308.342,355.341,308.392,355.396,308.433z
	 M325.105,317.883c-0.127,0.178-0.24,0.352-0.379,0.533c-0.432,0.545-0.889,1.069-1.352,1.59c-0.323-0.625-0.693-1.262-1.092-1.903
	c0.204-0.004,0.407,0.013,0.611,0.003C323.645,318.069,324.38,317.989,325.105,317.883z M287.976,264.055
	c-1.46,3.317-2.534,6.77-3.027,10.321c-3.105,0.499-6.187,1.128-9.341,1.333c-21.614,1.405-42.886-1.611-64.464-1.166
	c-0.086,0.001-0.17-0.004-0.256-0.004c-0.646-2.757-1.415-5.498-2.048-8.215c8.443-0.429,16.689-1.321,25.145-2.146
	c10.443-1.017,21.264-0.119,31.755-0.12C273.153,264.057,280.564,264.056,287.976,264.055z M175.683,242.637
	c-0.456-0.765-0.953-1.492-1.488-2.175c2.948,1.357,5.724,3.243,8.455,5.376c1.747,1.364,3.185,2.838,4.403,4.409
	c-1.763-1.021-3.868-1.244-5.88-0.807C180.967,245.63,178.585,243.388,175.683,242.637z M175.717,299.237
	c-0.377,1.073-0.714,2.198-1.03,3.378c-0.445,1.659-1.051,3.243-1.629,4.828c-0.869-2.746-2.268-5.662-2.888-8.293
	c-0.149-0.632-0.291-1.267-0.439-1.903c0.553-0.127,1.101-0.28,1.644-0.46c1.106,0.922,2.384,1.718,3.927,2.316
	C175.441,299.156,175.58,299.193,175.717,299.237z M128.742,263.691c-0.503,0.305-1.02,0.6-1.565,0.87
	c0.512-0.876,1.031-1.75,1.537-2.629c0.512,0.01,1.024,0.016,1.534,0.024C129.729,262.532,129.225,263.111,128.742,263.691z
	 M122.162,391.724c-0.382,1.875-1.195,3.482-2.247,4.93c0.069-0.284,0.156-0.564,0.212-0.849c0.295-1.533,0.289-2.939,0.258-4.423
	c0.899-1.135,1.531-2.517,1.885-4.007c0.122-0.134,0.245-0.267,0.364-0.403C122.587,388.577,122.479,390.168,122.162,391.724z
	 M208.993,356.251c-0.233,2.53-0.988,4.67-1.959,6.797c-3.1,0.183-6.163,0.565-8.786,0.628c-10.188,0.245-20.383,0.343-30.573,0.479
	c-9.616,0.127-19.392-0.233-28.983,0.477c-1.581,0.117-3.156,0.309-4.73,0.492c-0.242-2.118-0.57-4.244-0.865-6.404
	c-0.25-1.834-0.483-3.818-1.447-5.447c-0.764-1.291-2.201-2.245-2.756-3.38c-1.133-2.321-0.846-4.443-2.423-6.759
	c-1.974-2.897-3.523-5.479-5.173-8.607c-0.461-0.875-1.007-1.726-1.597-2.562c0.943-2.593,2.069-5.159,3.204-7.236
	c2.616-4.786,7.189-8.175,11.425-11.796c0.964,0.188,1.945,0.166,2.804-0.185c0.2-0.082,0.371-0.174,0.56-0.26
	c0.401,1.014,0.828,2.015,1.297,2.973c2.659,5.436,7.502,10.472,14.104,8.837c4.893-1.21,7.488-4.539,9.118-8.628
	c1.256,2.452,2.91,4.651,5.307,6.018c5.174,2.949,10.981,0.363,14.5-3.852c1.51-1.81,2.412-3.811,3.001-5.958
	c0.149,0.103,0.313,0.187,0.494,0.245c3.259,1.04,5.879,7.814,7.768,10.637c2.723,4.069,3.25,7.998,4.781,12.522
	c1.488,4.396,3.983,8.271,6.46,12.16c1.425,2.238,2.747,4.978,4.55,7.101C209.055,355.112,209.045,355.684,208.993,356.251z
	 M215.727,386.959c-2.147-0.233-2.79-0.632-2.91-1.887c0.077-0.135,0.139-0.271,0.207-0.407c1.58,1.057,3.608,1.65,6.201,1.597
	c0.714-0.015,1.42-0.116,2.121-0.257c0.032,0.266,0.061,0.533,0.1,0.797C220.254,387.095,217.116,387.11,215.727,386.959z
	 M312.676,463.101c2.181-0.238,3.966-0.465,5.024-0.536c2.958-0.198,5.89-0.294,8.852-0.228c2.68,0.059,0.692,0.637,0.659,0.054
	c0.151,2.672,0.217,4.891,0.849,7.55c1.306,5.507,1.425,11.218,1.416,16.877c-0.004,2.367,0.178,5.338-0.71,7.597
	c-1.444,3.674-2.931,2.322-6.078,1.546c-4.802-1.184-9.842,0.139-14.703-0.229c-6.833-0.518-12.999-0.78-19.869-0.253
	c-11.792,0.906-23.546,1.819-35.361,2.346c-6.199,0.277-12.072,0.416-18.191-0.739c-5.57-1.05-10.739-1.021-16.335-0.166
	c-6.523,0.997-11.522-0.095-17.946-1.022c-3.547-0.512-9.104,0.823-11.856-1.852c-5.23-5.083-6.069-19.821-2.863-25.904
	c1.339-2.539,2.799-2.708,5.672-3.226c1.075-0.193,2.17-0.257,3.248-0.47c0.45-0.09,3.264-0.647,2.568-0.731
	c0.741,0.019,1.469,0.122,2.199,0.229c0.89,0.643,1.945,1.036,2.965,0.944c1.485-0.134,3.277-0.691,4.763-0.627
	c1.832,0.079,3.339,0.918,5.205,0.88c4.481-0.092,8.335-2.093,12.96-1.944c4.299,0.139,8.524,0.551,12.811-0.033
	c4.236-0.576,8.292-1.903,12.58-2.234c4.748-0.367,9.052,0.412,13.691,1.301c4.628,0.886,8.987,0.823,13.692,0.797
	c4.574-0.025,8.551,1.643,13.045,2.071c3.987,0.379,7.99-0.187,11.988,0.102C306.522,465.46,310.245,465.185,312.676,463.101z
	 M295.024,434.814c4.54,5.382,9.448,11.352,9.948,18.647c-0.721,0.049-1.44,0.106-2.162,0.141c-2.193,0.108-4.359,0.345-6.543,0.479
	c-1.167,0.071-3.547-0.56-2.849,0.483c-1.248-1.867-3.49-1.721-4.666-0.338c-2.441-0.569-4.796-1.349-7.349-1.547
	c-4.854-0.374-9.586,0.436-14.406-0.506c-7.575-1.481-14.494-2.262-22.206-1.033c-3.698,0.59-7.26,1.737-11.018,1.868
	c-3.922,0.137-7.837-0.511-11.758-0.395c-3.423,0.101-6.794,1.993-10.05,2.005c-1.493,0.005-3.115-1.113-4.723-1.074
	c-0.237,0.006-0.47,0.048-0.706,0.077c-0.643-9.537,3.432-19.026,7.536-27.485c2.152-4.437,4.353-8.993,7.092-13.106
	c4.208,5.163,12.513,4.428,18.433,1.514c2.233-1.099,5.512-3.842,8.112-2.767c1.552,0.642,2.467,2.89,3.539,4.173
	c2.746,3.288,6.667,5.684,11.084,5.626c5.115-0.066,8.233-4.237,12.831-5.149c1.35-0.267,2.646-0.148,3.926,0.034
	C280.994,423.743,290.674,429.655,295.024,434.814z M221.93,367.774c0.45-4.162,1.619-8.302,2.972-12.31
	c-0.763,3.192-1.415,6.412-1.958,9.635c-0.153,0.91-0.318,1.881-0.482,2.877c-0.14,0.127-0.279,0.255-0.417,0.383
	C222.024,368.162,221.982,367.967,221.93,367.774z M231.037,400.325c0.429,0.129,0.862,0.236,1.302,0.315
	c0.286,0.507,0.601,1.006,0.977,1.484c0.382,0.485,0.812,0.927,1.238,1.374c-1.208,0.189-2.485,0.424-3.335,0.828
	C231.436,403.439,231.232,401.875,231.037,400.325z M235.964,381.455c-0.061-2.28,0.028-4.553,0.222-6.823
	c1.389-1.833,2.62-3.68,3.664-5.395C238.65,373.35,237.391,377.45,235.964,381.455z M254.176,379.33
	c0.605-3.998,1.502-7.782,1.794-9.939c0.277-2.037,0.426-4.093,0.543-6.151c1.218-4.705,2.329-9.429,3.415-14.176
	c-0.651,5.044-1.59,10.148-2.508,15.083C256.477,369.226,255.42,374.307,254.176,379.33z M264.03,327.157
	c0.469,0.194,0.933,0.407,1.399,0.618c-0.463,0.236-0.898,0.538-1.311,0.89C264.114,328.156,264.08,327.654,264.03,327.157z
	 M276.081,333.853c1.091,0.744,2.163,1.495,3.191,2.253c1.162,0.857,2.058,1.826,2.825,2.858c-0.129,0.214-0.257,0.427-0.383,0.643
	c-1.594-0.124-3.23,0.214-4.578,1.041C277.08,338.381,276.781,336.125,276.081,333.853z M289.643,328.401
	c-5.564-5.769-13.605-10.337-20.181-13.295c-11.159-5.018-24.846-7.18-35.113,0.823c-1.075,0.838-2.133,1.701-3.182,2.573
	c-0.608,0.121-1.227,0.265-1.874,0.46c-5.782,1.746-11.571,4.801-15.341,9.624c-0.936,1.196-1.701,2.455-2.336,3.758
	c-0.126-0.223-0.272-0.435-0.391-0.662c-1.428-2.725-2.321-5.709-3.732-8.44c-2.749-5.324-7.244-7.967-11.749-11.555
	c0.662-0.281,1.347-0.643,2.056-1.109c3.197-2.095,4.85-5.536,6.168-8.994c0.615-1.616,1.155-3.273,1.667-4.925
	c0.108-0.35,0.468-0.919,0.479-1.309c2.383-0.567,4.29-2.533,5.042-4.854c0.518-1.602,0.811-3.206,0.936-4.81
	c7.034,0.269,14.147-0.131,21.124,0.72c4.826,0.589,9.538,1.688,14.42,1.787c5.782,0.117,11.59-0.161,17.377-0.14
	c5.152,0.019,10.307,0.314,15.419-0.424c1.853-0.267,3.651-0.523,5.434-0.743c1.509,4.632,4.396,8.377,8.654,10.536
	c-1.391,4.317-3.863,9.365-4.113,13.968c-0.247,4.555,1.671,8.478,4.966,10.453c-1.137,1.087-2.23,2.232-3.243,3.489
	C291.472,326.151,290.612,327.195,289.643,328.401z M295.136,391.825c-0.382,1.875-1.195,3.482-2.247,4.93
	c0.069-0.284,0.158-0.562,0.212-0.849c0.295-1.533,0.29-2.939,0.26-4.423c0.899-1.135,1.531-2.517,1.885-4.007
	c0.122-0.134,0.245-0.267,0.364-0.403C295.561,388.678,295.454,390.269,295.136,391.825z M380.256,356.251
	c-0.183,1.99-0.69,3.739-1.369,5.43c-3.413-0.073-6.827-0.013-10.187,0.023c-10.251,0.11-19.972,4.089-30.14,3.907
	c-4.447-0.079-8.314-0.032-12.658,1.141c-5.182,1.398-8.354-0.009-13.551-0.393c-1.62-0.12-3.426-0.158-5.31-0.101
	c-0.245-2.462-0.625-4.926-0.968-7.437c-0.251-1.834-0.483-3.818-1.447-5.447c-0.764-1.291-2.201-2.245-2.756-3.38
	c-1.133-2.321-0.846-4.443-2.423-6.759c-1.002-1.471-1.895-2.863-2.747-4.285c0.837-1.344,1.698-2.669,2.634-3.934
	c2.965-4.009,6.137-7.4,9.82-10.675c1.519,3.084,3.281,6.018,5.984,8.271c8.641,7.202,17.756,0.316,23.143-7.234
	c0.245,0.291,0.42,0.496,0.478,0.557c3.386,3.658,8.073,5.711,13.019,4.045c2.127-0.716,3.968-2.035,5.618-3.529
	c0.82-0.743,1.536-1.562,2.288-2.368c0.373-0.42,0.746-0.84,1.12-1.26c0.72,0.619,1.43,1.179,1.615,1.3
	c1.58,1.035,3.191,1.786,5.043,2.171c2.108,0.439,4.087,0.333,5.941-0.179c2.474,3.096,4.297,6.749,5.95,10.308
	c0.474,1.022,0.917,2.031,1.358,3.025c-0.327,2.012-0.48,4.075-0.498,6.163C380.182,349.146,380.582,352.725,380.256,356.251z
	 M450.536,336.106c1.437,1.06,2.475,2.285,3.356,3.596c-1.865-0.374-3.884-0.04-5.491,0.946c-0.057-2.267-0.356-4.522-1.055-6.796
	C448.436,334.596,449.507,335.347,450.536,336.106z M436.694,327.774c-0.461,0.236-0.898,0.538-1.311,0.89
	c-0.005-0.508-0.038-1.01-0.088-1.507C435.764,327.351,436.228,327.564,436.694,327.774z M427.234,369.391
	c0.277-2.037,0.426-4.093,0.543-6.151c1.218-4.705,2.329-9.429,3.415-14.176c-0.651,5.044-1.59,10.148-2.508,15.083
	c-0.944,5.08-2.002,10.161-3.247,15.184C426.044,375.332,426.941,371.547,427.234,369.391z M407.449,374.632
	c1.389-1.833,2.62-3.68,3.664-5.395c-1.199,4.113-2.457,8.213-3.886,12.218C407.167,379.176,407.255,376.903,407.449,374.632z
	 M403.602,400.641c0.286,0.507,0.601,1.006,0.977,1.484c0.382,0.485,0.812,0.927,1.238,1.374c-1.208,0.189-2.485,0.424-3.335,0.828
	c0.216-0.888,0.011-2.452-0.184-4.002C402.73,400.454,403.164,400.561,403.602,400.641z M396.165,355.465
	c-0.646,2.701-1.194,5.423-1.682,8.146c-0.195-0.053-0.39-0.111-0.586-0.161C394.477,360.752,395.282,358.08,396.165,355.465z
	 M386.99,386.959c-2.147-0.233-2.79-0.632-2.91-1.887c0.077-0.135,0.139-0.271,0.207-0.407c1.58,1.057,3.608,1.65,6.201,1.597
	c0.714-0.015,1.42-0.116,2.121-0.257c0.031,0.266,0.061,0.533,0.1,0.797C391.519,387.095,388.381,387.11,386.99,386.959z
	 M385.336,426.139c2.152-4.437,4.353-8.993,7.092-13.106c4.208,5.163,12.513,4.428,18.433,1.514
	c2.234-1.099,5.512-3.842,8.112-2.767c1.552,0.642,2.467,2.89,3.539,4.173c2.746,3.288,6.667,5.684,11.082,5.626
	c5.115-0.066,8.233-4.237,12.831-5.149c1.35-0.267,2.646-0.148,3.926,0.034c1.906,7.28,11.585,13.192,15.936,18.351
	c4.54,5.382,9.448,11.352,9.948,18.647c-0.721,0.049-1.44,0.106-2.162,0.141c-2.191,0.108-4.359,0.345-6.543,0.479
	c-1.167,0.071-3.547-0.56-2.849,0.483c-1.248-1.867-3.49-1.721-4.665-0.338c-2.441-0.569-4.796-1.349-7.349-1.547
	c-4.854-0.374-9.586,0.436-14.406-0.506c-7.575-1.481-14.494-2.262-22.206-1.033c-3.698,0.59-7.26,1.737-11.018,1.868
	c-3.922,0.137-7.837-0.511-11.758-0.395c-3.423,0.101-6.794,1.993-10.05,2.005c-1.493,0.005-3.115-1.113-4.723-1.074
	c-0.237,0.006-0.47,0.048-0.706,0.077C377.159,444.087,381.234,434.597,385.336,426.139z M500.031,494.414
	c-1.444,3.674-2.931,2.322-6.078,1.546c-4.802-1.184-9.842,0.139-14.703-0.229c-6.833-0.518-12.999-0.78-19.869-0.253
	c-11.792,0.906-23.546,1.819-35.361,2.346c-6.199,0.277-12.072,0.416-18.191-0.739c-5.57-1.05-10.739-1.021-16.335-0.166
	c-6.523,0.997-11.522-0.095-17.946-1.023c-3.548-0.512-9.104,0.823-11.856-1.852c-5.23-5.083-6.069-19.821-2.863-25.904
	c1.339-2.539,2.799-2.708,5.672-3.226c1.075-0.193,2.17-0.257,3.248-0.47c0.45-0.09,3.264-0.647,2.568-0.731
	c0.741,0.019,1.469,0.122,2.199,0.229c0.89,0.643,1.945,1.036,2.965,0.944c1.485-0.134,3.277-0.691,4.763-0.627
	c1.832,0.079,3.339,0.918,5.204,0.88c4.481-0.092,8.335-2.093,12.96-1.944c4.299,0.139,8.524,0.551,12.811-0.033
	c4.236-0.576,8.292-1.903,12.58-2.234c4.748-0.367,9.052,0.412,13.691,1.301c4.628,0.886,8.987,0.823,13.692,0.797
	c4.575-0.025,8.551,1.643,13.047,2.071c3.987,0.379,7.99-0.187,11.988,0.102c3.572,0.257,7.295-0.016,9.726-2.1
	c2.181-0.238,3.966-0.465,5.024-0.536c2.958-0.198,5.89-0.294,8.852-0.228c2.68,0.059,0.693,0.637,0.659,0.054
	c0.151,2.672,0.217,4.891,0.849,7.55c1.306,5.507,1.425,11.218,1.416,16.877C500.737,489.184,500.917,492.156,500.031,494.414z"/>
<path d="M138.238,149.397c-0.367-3.992-0.096-8.059-0.023-12.058c0.113-6.231,0.627-14.973-4.475-19.591
	c-2.124-1.923-4.589-2.005-6.521-0.932c-18.489-12.18-41.956,14.196-33.851,33.996c4.384,10.708,17.375,14.056,27.205,8.699
	c1.104-0.603,2.094-1.306,3.018-2.066c1.044,4.168,3.35,7.677,8.011,8.317c5.921,0.813,12.145-4.817,8.379-10.899
	C138.78,152.919,138.518,152.435,138.238,149.397z M123.987,121.787c-1.099,8.664,0.652,18.929-5.526,26.314
	c-4.254,5.083-13.207,5.38-16.038-1.29c-4.985-11.742,9.45-29.278,21.712-25.803C124.074,121.261,124.021,121.52,123.987,121.787z"
	/>
<path d="M177.444,150.114c-0.049-0.3-0.124-0.545-0.227-0.614c0.005,0.059,0.01,0.112,0.015,0.168
	C177.308,149.828,177.384,149.986,177.444,150.114z"/>
<path d="M153.606,137.598c3.253,0.773,6.605,1.578,9.987,2.148c-0.459,2.387-0.842,4.785-0.83,7.234
	c0.021,4.193,1.32,8.388,5.189,10.502c3.605,1.971,7.72,1.358,10.117-2.138c0.791-1.154,0.656-2.81,0-3.978
	c-0.093-0.185-0.208-0.358-0.318-0.533c-0.04-0.127-0.141-0.364-0.306-0.721c0.018,0.105,0.03,0.213,0.042,0.324
	c-0.064-0.088-0.137-0.17-0.207-0.255c-0.015-0.151-0.03-0.329-0.047-0.516c-0.033-0.067-0.057-0.12-0.092-0.193
	c0.028-0.006,0.053,0.008,0.077,0.025c-0.008-0.086-0.014-0.151-0.021-0.243c-0.243-3.073-0.221-5.86,0.045-8.945
	c0.005-0.061,0.006-0.122,0.01-0.184c4.898-0.575,11.448-2.016,11.448-7.574c0-6.323-7.078-6.585-11.976-5.877
	c-0.593-3.56-1.548-7.043-2.97-10.284c-1.296-2.955-5.107-1.677-5.974,0.823c-0.035-0.01-0.071-0.019-0.105-0.029
	c-1.57,3.731-2.002,7.594-2.393,11.491c-3.998,0.664-7.976,1.444-11.677,2.899l0.018,0.013
	C151.205,132.441,150.123,136.77,153.606,137.598z"/>
<path d="M203.023,139.843c-2.428,5.929,1.123,12.119,6.214,15.98c2.844,2.157,6.013,3.683,9.351,4.928
	c3.162,1.18,4.21,2.327,7.505,3.109c6.962,1.652,17.679-4.43,22.965-8.374c6.23-4.647,12.417-12.009,10.372-20.362
	c-2.298-9.385-10.173-10.882-18.233-12.228c-4.361-0.729-8.058-2.72-12.609-2.261c-4.153,0.42-9.202,1.242-13.086,2.788
	c-0.827,0.329-1.585,0.705-2.308,1.14c0.252-1.183,0.512-2.364,0.629-3.582c0.499-5.228-0.881-10.439-0.878-15.672
	c0.005-5.082,0.318-9.795-0.593-14.842c-0.327-1.812-3.089-1.66-3.514,0c-2.035,7.937-4.134,14.872-4.87,23.098
	c-0.594,6.637-4.374,12.66-3.864,19.437C200.302,135.628,201.32,138.11,203.023,139.843z M216.558,138.821
	c2.839-2.419,3.56-3.172,7.265-4.013c4.311-0.978,6.942-2.206,11.351-1.117c2.837,0.701,6.081,0.566,8.814,1.353
	c9.916,2.857-4.332,11.368-8.331,13.039c-1.422,0.595-3.012,0.831-4.398,1.486c-1.459,0.69-2.477,0.777-1.451,1.319
	c-2.046-0.913-4.098-2.061-6.251-2.886c-4.187-1.604-7.222-3.819-9.158-7.574C215.151,139.949,215.873,139.405,216.558,138.821z"/>
<path d="M277.746,134.035c9.421,1.707,17.563,2.268,26.944-0.124c5.97-1.522,4.408-10.082-1.407-10.396
	c-4.119-0.222-7.903,1.214-11.909,1.897c-4.51,0.769-9.103,1.125-13.628,1.879C274.385,127.853,274.43,133.435,277.746,134.035z"/>
<path d="M272.529,150.615c6.078,3.891,13.136,3.008,19.922,1.908c7.974-1.292,14.098-1.209,20.567-6.427
	c1.253-1.011,1.155-3.364,0-4.388c-5.329-4.727-12.575-2.587-18.952-0.849c-2.16,0.59-19.129,8.108-20.043,6.228
	c-0.545-1.12-2.152-0.49-2.203,0.596c-0.025,0.523-0.049,1.045-0.073,1.568C271.721,149.817,272.071,150.322,272.529,150.615z"/>
<path d="M355.957,157.134c6.745-0.293,13.857-1.33,19.469-5.343c3.386-2.421,8.465-5.878,6.895-10.722
	c-0.682-2.103-3.189-3.388-5.21-2.119c-2.138,1.344-4.413,0.889-6.813,1.017c-3.414,0.183-6.67,1.217-10.05,1.635
	c-5.061,0.625-14.884,2.165-16.18-4.846c-1.199-6.484,3.814-14.016,9.03-17.287c3.625-2.273,14.645-4.984,17.791-0.675
	c1.505,2.063,5.039,1.515,5.048-1.367c0.029-11.053-14.595-13.263-23.007-11.319c-12.866,2.973-22.736,17.039-22.481,30.034
	C330.729,150.371,342.828,157.704,355.957,157.134z"/>
<path d="M62.794,104.193c1.389-2.235,2.09-4.833,3.245-7.189c1.532-3.125,3.911-5.662,5.431-8.799c1.05-2.166-1.422-4-3.249-2.506
	c-4.531,3.707-12.468,11.866-9.39,18.494C59.592,105.828,61.957,105.538,62.794,104.193z"/>
<path d="M59.965,116.429c0.792,0.562,1.962,0.124,2.426-0.637c0.087-0.142,0.177-0.289,0.253-0.44
	c0.047-0.049,0.09-0.095,0.146-0.158c0.45-0.502,0.717-1.109,1.077-1.671c0.788-1.229,1.761-2.297,2.717-3.393
	c1.038-1.189,2.054-2.258,3.31-3.228c0.987-0.762,1.839-1.701,2.91-2.332c0.928-0.548,0.625-2.366-0.596-2.203
	c-3.578,0.48-6.987,2.451-9.79,4.704C59.754,109.213,56.226,113.771,59.965,116.429z"/>
<path d="M61.851,129.286c2.621-0.669,4.979-3.441,6.627-5.469c1.708-2.104,3.247-4.859,3.103-7.657
	c-0.113-2.213-2.964-2.477-3.724-0.504c-0.888,2.303-2.379,3.953-4.202,5.597c-1.691,1.526-3.855,3.017-4.567,5.27
	C58.559,128.197,60.25,129.695,61.851,129.286z"/>
<path d="M67.911,136.331c-0.021,0.813-0.067,1.614-0.371,2.383c-0.231,0.582-0.595,0.885-1.173,1.3
	c-0.999,0.717-1.072,2.587,0.377,2.881c3.776,0.765,4.772-3.718,4.713-6.562C71.411,134.049,67.971,134.048,67.911,136.331z"/>
<path d="M75.046,181.899c3.51-1.979,0.376-7.339-3.157-5.401c-4.752,2.607-12.97,7.855-11.061,14.307c0.724,2.445,4.294,2.486,5,0
	C66.97,186.79,71.641,183.819,75.046,181.899z"/>
<path d="M73.519,191.125c-0.368,2.518-2.906,3.273-3.901,5.494c-0.823,1.841-1.078,3.733-2.552,5.174
	c-1.019,0.996-0.552,2.859,0.847,3.21c3.806,0.952,4.423-2.883,6.115-5.148c2.045-2.736,4.631-4.186,4.521-8.051
	C78.472,189.062,73.954,188.153,73.519,191.125z"/>
<path d="M150.89,397.829c2.08-2.437-1.392-5.987-3.552-3.552c-3.381,3.811-7.405,6.966-10.863,10.707
	c-2.401,2.597-5.072,5.5-4.909,9.26c0.113,2.633,3.842,3.216,4.622,0.625C138.261,407.983,146.438,403.042,150.89,397.829z"/>
<path d="M152.393,406.368c-1.621,3.244-4.536,4.91-6.937,7.481c-1.209,1.296-1.963,2.93-3.16,4.217
	c-1.19,1.282-2.524,2.079-3.39,3.654c-0.673,1.224,0.438,2.706,1.808,2.351c1.89-0.489,3.673-1.088,5.082-2.506
	c1.488-1.497,2.249-3.516,3.707-5.053c2.684-2.829,5.198-4.806,6.625-8.571C156.947,405.785,153.424,404.304,152.393,406.368z"/>
<path d="M146.164,434.04c4.007-2.348,10.58-7.928,8.976-13.277c-0.324-1.082-1.258-1.737-2.36-1.798
	c-0.381-0.02-0.763-0.04-1.145-0.062c-2.195-0.119-2.984,2.813-1.667,4.1c-1.115,3.321-4.24,5.888-6.062,8.778
	C143.015,433.199,144.77,434.857,146.164,434.04z"/>
<path d="M324.743,396.432c-2.134,2.113-3.84,3.756-6.564,5.07c-1.792,0.865-3.293,1.899-4.627,3.376
	c-2.147,2.38-5.28,6.472-3.476,9.806c0.373,0.691,1.425,1.194,2.196,0.894c3.066-1.189,4.449-4.539,6.657-6.765
	c1.432-1.444,3.359-2.001,5.03-3.113c2.001-1.33,3.452-3.244,5.066-4.986C331.67,397.863,327.527,393.676,324.743,396.432z"/>
<path d="M324.83,412.715c-0.084,0.084-0.168,0.171-0.256,0.252c-0.425,0.337-0.872,0.637-1.33,0.929
	c-0.867,0.556-1.773,1.046-2.611,1.643c-2.564,1.824-5.918,4.681-6.828,7.773c-0.391,1.325,0.908,2.566,2.211,2.211
	c1.949-0.53,3.794-2.325,5.392-3.548c1.302-0.995,2.624-1.964,3.913-2.973c1.024-0.801,2.094-1.601,2.935-2.6
	c1.167-1.386,1.228-2.617,0.562-3.83C327.958,411.004,325.523,411.279,324.83,412.715z"/>
<path d="M48.775,483.56c-0.318-1.331-0.391-2.664-0.414-4.031c-0.045-2.616,0.236-5.217,0.25-7.829c0.019-3.714-5.667-3.705-5.762,0
	c-0.09,3.523-0.627,7.019-0.306,10.55c0.282,3.112,2.315,8.785,6.221,6.066c0.734-0.511,1.157-1.524,0.618-2.353
	c0.784,1.203-0.185-0.879-0.252-1.125C49.015,484.418,48.881,484.001,48.775,483.56z"/>
<path d="M56.272,473.651c-1.067,4.916-6.465,12.668-1.914,17.157c0.725,0.715,1.982,0.932,2.868,0.371
	c0.223-0.141,0.448-0.284,0.671-0.425c0.688-0.436,1.077-1.441,0.604-2.182c0.078-0.797,0.087-1.592,0.166-2.407
	c0.158-1.6,0.628-3.022,1.009-4.573c0.633-2.58,1.147-5.295,0.727-7.939C60.069,471.547,56.702,471.669,56.272,473.651z"/>
<path d="M65.966,479.264c-0.003,0.183-0.038,0.499-0.045,0.599c-0.061,0.374-0.126,0.749-0.192,1.123
	c-0.227,1.289-0.488,2.598-0.585,3.903c-0.203,2.706,0.673,5.163,3.336,6.185c2.384,0.915,4.178-1.484,3.961-3.62
	c0.009-0.149,0.018-0.329,0.032-0.569c0.018-0.306,0.01-0.615,0.026-0.923c0.026-0.261,0.018-0.224-0.025,0.108
	c0.072-0.455,0.13-0.913,0.171-1.372c0.025-0.189,0.034-0.266,0.037-0.29c0.009-0.053,0.021-0.13,0.047-0.279
	c0.26-1.597,0.658-3.245,0.673-4.867C73.446,474.476,66.049,474.477,65.966,479.264z"/>
<path d="M207.119,474.221c-0.461,3.54-1.807,6.924-2.282,10.495c-0.202,1.52,1.251,3.057,2.615,3.434
	c0.666,0.184,1.227,0.141,1.894,0c1.522-0.324,2.609-1.938,2.615-3.434c0.016-3.523,0.415-6.968,0.183-10.495
	C211.926,470.917,207.529,471.074,207.119,474.221z"/>
<path d="M225.116,473.979c-2.788-2.116-6.233,2.228-4.143,4.729c-0.274,0.565-0.498,1.146-0.609,1.779
	c-0.387,2.208-0.311,5.1,1.586,6.632c0.686,0.553,1.843,0.963,2.656,0.343c1.348-1.029,1.993-2.302,2.269-3.974
	c0.098-0.598,0.103-1.302,0.231-1.915c0.037-0.048,0.165-0.378,0.228-0.503C228.809,478.116,227.601,475.864,225.116,473.979z"/>
<path d="M402.084,477.185c-0.869,3.515-4.908,10.753,0.185,12.932c1.769,0.756,4.63-0.546,3.734-2.871
	c-0.082-0.213-0.079-0.657,0.019-1.393c0.108-0.809,0.28-1.589,0.509-2.383c0.453-1.56,1.117-3.068,1.488-4.65
	C408.923,474.971,403.038,473.328,402.084,477.185z"/>
<path d="M420.552,479.054c-1.231-0.165-2.849,0.623-3.054,1.993c-0.1,0.672-0.325,1.282-0.49,1.932
	c-0.009,0.019-0.015,0.029-0.026,0.053c-0.023,0.038-0.045,0.074-0.067,0.112c-0.311,0.323-0.532,0.688-0.669,1.089
	c-0.155,0.221-0.282,0.459-0.356,0.745c-0.169,0.657-0.028,1.532,0.526,1.99c0.53,0.436,0.943,0.648,1.635,0.706
	c0.044-0.001,0.071-0.003,0.098-0.003c0.422,0.091,0.845,0.095,1.267-0.019c0.975-0.269,1.707-1.077,2.277-1.866
	c0.865-1.2,1.102-2.566,1.272-3.998C423.128,480.418,421.78,479.218,420.552,479.054z"/>
<g>
</g>
<g>
</g>
<g>
</g>
<g>
</g>
<g>
</g>
<g>
</g>
<g>
</g>
<g>
</g>
<g>
</g>
<g>
</g>
<g>
</g>
<g>
</g>
<g>
</g>
<g>
</g>
<g>
</g>
</svg>
