<svg id="Layer_1" enable-background="new 0 0 512 512" height="512" viewBox="0 0 512 512" width="512" xmlns="http://www.w3.org/2000/svg"><g clip-rule="evenodd" fill-rule="evenodd"><g><path d="m211.266 251.12 70.849.269v-160.519c0-4.418 3.582-8 8-8h81.899v16h-73.899v152.579l73.899.28v15.937l-73.899-.28v153.14h73.899v16h-81.899c-4.418 0-8-3.582-8-8v-161.2l-70.849-.269z" fill="#a79ba7"/><path d="m372.269 40.911h60.193c10.925 0 19.863 8.938 19.863 19.863v60.193c0 10.925-8.938 19.863-19.863 19.863h-60.193c-10.925 0-19.863-8.938-19.863-19.863v-60.193c0-10.925 8.938-19.863 19.863-19.863z" fill="#fe646f"/><path d="m386.143 82.349c-3.124-3.124-3.124-8.189 0-11.313s8.189-3.124 11.312 0l23.846 23.846 65.331-59.289c3.262-2.968 8.313-2.731 11.281.531 2.969 3.262 2.731 8.313-.531 11.281l-70.658 64.123-.044.045c-3.124 3.124-8.189 3.124-11.312 0z" fill="#a79ba7"/><path d="m372.269 209.739h60.193c10.925 0 19.863 8.938 19.863 19.863v60.193c0 10.925-8.938 19.863-19.863 19.863h-60.193c-10.925 0-19.863-8.938-19.863-19.863v-60.193c0-10.925 8.938-19.863 19.863-19.863z" fill="#ffe177"/><path d="m386.143 251.177c-3.124-3.124-3.124-8.189 0-11.312 3.124-3.124 8.189-3.124 11.312 0l23.846 23.846 65.331-59.289c3.262-2.968 8.313-2.731 11.281.531 2.969 3.262 2.731 8.313-.531 11.281l-70.658 64.123-.044.045c-3.124 3.124-8.189 3.124-11.312 0z" fill="#a79ba7"/><path d="m372.269 378.567h60.193c10.925 0 19.863 8.938 19.863 19.863v60.193c0 10.925-8.938 19.863-19.863 19.863h-60.193c-10.925 0-19.863-8.938-19.863-19.863v-60.193c0-10.925 8.938-19.863 19.863-19.863z" fill="#6cf5c2"/><path d="m386.143 420.005c-3.124-3.124-3.124-8.189 0-11.312 3.124-3.124 8.189-3.124 11.312 0l23.846 23.846 65.331-59.289c3.262-2.968 8.313-2.731 11.281.531 2.969 3.262 2.731 8.313-.531 11.281l-70.658 64.123-.044.045c-3.124 3.124-8.189 3.124-11.312 0z" fill="#a79ba7"/></g><g><path d="m124.507 80.832c27.96 0 50.626 15.934 50.626 52.681s-22.666 66.537-50.626 66.537c-27.959 0-50.625-29.79-50.625-66.537-.001-36.747 22.665-52.681 50.625-52.681z" fill="#ffece3"/><path d="m124.507 80.832c27.96 0 50.626 15.934 50.626 52.681 0 36.746-22.666 66.537-50.626 66.537-2.549 0-5.052-.25-7.5-.728 24.402-4.764 43.125-32.412 43.125-65.809 0-33.398-18.723-49.602-43.125-52.279 2.447-.269 4.951-.402 7.5-.402z" fill="#ffddce"/><path d="m28.122 367.272h192.769c8.876 0 16.115-7.239 16.115-16.115v-86.08c0-25.035-22.299-39.252-47.669-45.545-42.6-10.567-85.787-11.281-129.661 0-25.311 6.508-47.669 20.496-47.669 45.545v86.08c0 8.875 7.24 16.115 16.115 16.115z" fill="#80b4fb"/><g fill="#61a2f9"><path d="m205.89 367.272h15.001c8.876 0 16.116-7.239 16.116-16.116v-86.08c0-25.035-22.299-39.252-47.67-45.545-24.105-5.98-48.399-8.803-72.899-8.084 19.425.568 38.721 3.327 57.898 8.084 25.371 6.293 47.67 20.51 47.67 45.545v86.08c0 8.876-7.239 16.116-16.116 16.116z"/><path d="m51.128 367.272h24v-78.703c0-6.627-5.373-12-12-12s-12 5.373-12 12zm122.757 0h24v-78.703c0-6.627-5.373-12-12-12s-12 5.373-12 12z"/></g></g></g></svg>