<svg id="Capa_1" enable-background="new 0 0 512 512" height="512" viewBox="0 0 512 512" width="512" xmlns="http://www.w3.org/2000/svg"><g><g><path d="m309.636 42.204h-133.342c-11.934 0-21.643 9.708-21.643 21.642v68.691c0 11.934 9.709 21.642 21.643 21.642h133.342c11.934 0 21.642-9.708 21.642-21.642v-68.691c-.001-11.933-9.709-21.642-21.642-21.642zm6.641 90.334c0 3.663-2.979 6.642-6.642 6.642h-133.341c-3.663 0-6.643-2.979-6.643-6.642v-68.692c0-3.663 2.979-6.642 6.643-6.642h133.342c3.662 0 6.642 2.979 6.642 6.642v68.692z"/><path d="m291.452 106.854h-96.976c-4.143 0-7.5 3.358-7.5 7.5s3.357 7.5 7.5 7.5h96.976c4.143 0 7.5-3.358 7.5-7.5s-3.357-7.5-7.5-7.5z"/><path d="m194.476 89.53h20.203c4.143 0 7.5-3.358 7.5-7.5s-3.357-7.5-7.5-7.5h-20.203c-4.143 0-7.5 3.358-7.5 7.5s3.358 7.5 7.5 7.5z"/><path d="m291.452 74.53h-44.447c-4.143 0-7.5 3.358-7.5 7.5s3.357 7.5 7.5 7.5h44.447c4.143 0 7.5-3.358 7.5-7.5s-3.357-7.5-7.5-7.5z"/><path d="m176.294 311.13h-52.528c-4.143 0-7.5 3.358-7.5 7.5s3.357 7.5 7.5 7.5h52.528c4.143 0 7.5-3.358 7.5-7.5s-3.358-7.5-7.5-7.5z"/><path d="m123.765 293.806h20.203c4.143 0 7.5-3.358 7.5-7.5s-3.357-7.5-7.5-7.5h-20.203c-4.143 0-7.5 3.358-7.5 7.5s3.358 7.5 7.5 7.5z"/><path d="m190.436 278.806h-14.143c-4.143 0-7.5 3.358-7.5 7.5s3.357 7.5 7.5 7.5h14.143c4.143 0 7.5-3.358 7.5-7.5s-3.357-7.5-7.5-7.5z"/><path d="m429.375 189.109c.845 4.056 4.82 6.659 8.872 5.813 4.055-.844 6.658-4.816 5.813-8.872l-11.271-54.111c-2.204-10.576-11.099-18.299-21.637-18.782-3.184-.14-6.285.354-9.165 1.431v-86.888c0-15.274-12.426-27.7-27.7-27.7h-282.849c-26.412 0-47.9 21.492-47.9 47.91v24.09c0 4.142 3.357 7.5 7.5 7.5s7.5-3.358 7.5-7.5v-24.09c0-15.566 10.863-28.633 25.402-32.038v328.321c-9.456 1.654-18.362 6.085-25.402 12.743v-249.936c0-4.142-3.357-7.5-7.5-7.5s-7.5 3.358-7.5 7.5c0 0 0 285.082.004 285.293h.02c.501 25.987 21.777 46.977 47.877 46.977h102.38c4.143 0 7.5-3.358 7.5-7.5s-3.357-7.5-7.5-7.5h-102.381c-18.079 0-32.794-14.663-32.896-32.723-.041-8.509 3.282-16.606 9.404-22.847 6.387-6.511 15.241-10.245 24.291-10.245h185.649v25.407h-105.633c-4.143 0-7.5 3.358-7.5 7.5s3.357 7.5 7.5 7.5h105.762c.709 9.563 4.698 18.518 11.31 25.408h-60.507c-4.143 0-7.5 3.358-7.5 7.5s3.357 7.5 7.5 7.5h71.976c.89 2.661 1.344 5.434 1.344 8.28v56.95c0 4.142 3.357 7.5 7.5 7.5s7.5-3.358 7.5-7.5v-56.95c0-6-1.345-12.041-3.888-17.471-2.545-5.432-6.324-10.332-10.935-14.173-5.991-4.987-9.428-12.318-9.428-20.115v-49.26c0-3.868.832-7.605 2.474-11.11 1.611-3.443 4.018-6.558 6.957-9.008 9.418-7.847 14.819-19.38 14.819-31.642v-52.91c0-9.059 7.362-16.569 16.414-16.741 4.377-.087 8.563 1.616 11.796 4.789 3.355 3.292 5.28 7.845 5.28 12.493v55.38c0 4.702 1.905 9.303 5.227 12.624l7.83 7.83c6.962 6.962 18.287 6.96 25.247 0l7.829-7.829c3.322-3.322 5.228-7.923 5.228-12.625v-161.542c0-2.234.89-4.314 2.504-5.858 1.615-1.544 3.76-2.341 5.982-2.24 3.628.167 6.838 3.051 7.631 6.857zm-42.387 108.671c0 .752-.304 1.487-.834 2.017l-7.83 7.83c-1.111 1.11-2.921 1.112-4.032 0l-7.831-7.831c-.529-.529-.833-1.264-.833-2.016v-55.38c0-8.649-3.563-17.106-9.775-23.2-6.132-6.016-14.151-9.228-22.587-9.078-17.164.326-31.128 14.563-31.128 31.738v52.91c0 7.796-3.434 15.129-9.422 20.119-4.619 3.849-8.402 8.75-10.939 14.17-2.109 4.503-3.38 9.427-3.757 14.396h-179.08v-328.455h275.348c7.003 0 12.7 5.697 12.7 12.7z"/><path d="m466.951 295.89-15.75-75.58c-.846-4.055-4.818-6.655-8.873-5.812-4.055.845-6.657 4.817-5.812 8.872l15.75 75.579c2.066 9.926 1.448 20.254-1.787 29.872l-33.8 100.56c-.259.77-.391 1.577-.391 2.39v72.73c0 4.142 3.357 7.5 7.5 7.5s7.5-3.358 7.5-7.5v-71.503l33.408-99.395c4.084-12.14 4.863-25.18 2.255-37.713z"/><path d="m91.44 383.862c-4.143 0-7.5 3.358-7.5 7.5s3.357 7.5 7.5 7.5h48.487c4.143 0 7.5-3.358 7.5-7.5s-3.357-7.5-7.5-7.5z"/></g></g></svg>