<svg enable-background="new 0 0 512 512" height="512" viewBox="0 0 512 512" width="512" xmlns="http://www.w3.org/2000/svg" xmlns:xlink="http://www.w3.org/1999/xlink"><linearGradient id="SVGID_1_" gradientUnits="userSpaceOnUse" x1="87.929" x2="424.069" y1="424.072" y2="87.931"><stop offset="0" stop-color="#7a34f4"/><stop offset=".344" stop-color="#6473f6"/><stop offset=".6365" stop-color="#54a2f8"/><stop offset=".8603" stop-color="#4abef9"/><stop offset=".9888" stop-color="#46c9f9"/></linearGradient><g id="_x36_3_Brochure"><path d="m401.196 292.977c0 2.876-2.328 5.204-5.204 5.204h-146.436c-2.876 0-5.204-2.328-5.204-5.204s2.328-5.204 5.204-5.204h146.436c2.876 0 5.204 2.328 5.204 5.204zm-5.204 46.105h-146.436c-2.876 0-5.204 2.328-5.204 5.204s2.328 5.204 5.204 5.204h146.436c2.876 0 5.204-2.328 5.204-5.204s-2.328-5.204-5.204-5.204zm0 51.314h-146.436c-2.876 0-5.204 2.328-5.204 5.204s2.328 5.204 5.204 5.204h146.436c2.876 0 5.204-2.328 5.204-5.204s-2.328-5.204-5.204-5.204zm-58.45 51.309h-87.987c-2.876 0-5.204 2.328-5.204 5.204s2.328 5.204 5.204 5.204h87.987c2.876 0 5.204-2.328 5.204-5.204.001-2.876-2.327-5.204-5.204-5.204zm63.654-284.374v97.876c0 2.876-2.328 5.204-5.204 5.204h-146.436c-2.876 0-5.204-2.328-5.204-5.204v-97.876c0-2.876 2.328-5.204 5.204-5.204h146.436c2.876 0 5.204 2.327 5.204 5.204zm-10.408 5.204h-136.028v87.468h136.028zm70.743-18.133v315.436c0 25.339-20.618 45.958-45.958 45.958h-226.347c-2.695 0-5.204-2.354-5.204-5.204v-87.026h-87.595c-25.339 0-45.958-20.618-45.958-45.963v-315.436c0-25.344 20.618-45.963 45.958-45.963h226.347c2.831 0 5.204 2.491 5.204 5.204v87.031h87.595c25.34 0 45.958 20.618 45.958 45.963zm-143.961-45.963v-77.111l-111.653 77.111zm-133.548 304.719v-299.515c0-1.512.871-3.327 2.246-4.284l119.809-82.747h-209.65c-19.602 0-35.549 15.948-35.549 35.554v315.436c0 19.607 15.948 35.554 35.549 35.554h87.595zm267.101-258.756c0-19.607-15.948-35.554-35.549-35.554h-221.144v386.54h221.143c19.602 0 35.549-15.948 35.549-35.549v-315.437z" fill="url(#SVGID_1_)"/></g></svg>