<svg id="Layer_1" enable-background="new 0 0 512 512" height="512" viewBox="0 0 512 512" width="512" xmlns="http://www.w3.org/2000/svg" xmlns:xlink="http://www.w3.org/1999/xlink"><linearGradient id="SVGID_1_" gradientUnits="userSpaceOnUse" x1="256" x2="256" y1="74.4" y2="437.6"><stop offset="0" stop-color="#f704fe"/><stop offset="1" stop-color="#24bce3"/></linearGradient><path d="m412.1 385.8c-2.4 0-4.9-.9-6.8-2.8l-59-59c-.7-.7-1.7-1.1-2.7-1.1h-199c-21 0-38.2-17.1-38.2-38.2v-172.2c.2-21 17.2-38.1 38.2-38.1h288.3c21 0 38.1 17.1 38.1 38.1v172.2c0 21-17.1 38.1-38.1 38.1h-7.4c-2.1 0-3.8 1.7-3.8 3.8v49.6c0 3.9-2.2 7.3-5.8 8.8-1.2.6-2.5.8-3.8.8zm-267.5-301.7c-15.5 0-28.3 12.8-28.4 28.4v172.3c0 15.6 12.8 28.4 28.4 28.4h199c3.5 0 7.1 1.4 9.6 4l58.6 58.6v-49.1c0-7.5 6.1-13.6 13.6-13.6h7.4c15.6 0 28.4-12.8 28.4-28.4v-172.2c0-15.6-12.8-28.4-28.4-28.4zm-56 353.5c-1.1 0-2.3-.3-3.4-.7-3.2-1.4-5.2-4.4-5.2-7.9v-39.2c0-1.1-.9-2-2-2h-5.8c-17.2 0-31.2-14-31.2-31.2v-151.5c0-17.1 14-31.1 31.2-31.1h39.3c2.7 0 4.9 2.2 4.9 4.9s-2.2 4.9-4.9 4.9h-39.4c-11.8 0-21.4 9.5-21.4 21.3v151.5c0 11.8 9.6 21.4 21.4 21.4h5.8c6.5 0 11.8 5.3 11.8 11.8v36.3l44.5-44.5c2.3-2.3 5.2-3.5 8.3-3.5h138c11.7 0 21.3-9.6 21.3-21.4v-38.7c0-2.7 2.2-4.9 4.9-4.9s4.9 2.2 4.9 4.9v38.7c0 17.2-13.9 31.2-31.1 31.2h-138c-.5 0-.9.2-1.4.6l-46.5 46.5-.1.1c-1.6 1.7-3.8 2.5-5.9 2.5zm75.2-184.5c-2.7 0-4.9-2.2-4.9-4.9v-99.2c0-2.7 2.2-4.9 4.9-4.9h51.2c2.7 0 4.9 2.2 4.9 4.9s-2.2 4.9-4.9 4.9h-46.4v94.3c.1 2.8-2.1 4.9-4.8 4.9zm51.2-49.6h-51.2c-2.7 0-4.9-2.2-4.9-4.9s2.2-4.9 4.9-4.9h51.2c2.7 0 4.9 2.2 4.9 4.9s-2.2 4.9-4.9 4.9zm15.5 49.6c-.5 0-1.1-.1-1.6-.3-2.5-.9-3.9-3.7-3-6.3l34.6-99.2c.7-1.9 2.5-3.3 4.6-3.3s4 1.4 4.6 3.3l34.6 99.2c.9 2.5-.4 5.3-3 6.3-2.5.9-5.3-.4-6.3-3l-30-85.9-30 86c-.6 2-2.4 3.2-4.5 3.2zm57.6-33.3h-45.9c-2.7 0-4.9-2.2-4.9-4.9s2.2-4.9 4.9-4.9h45.9c2.7 0 4.9 2.2 4.9 4.9 0 2.8-2.2 4.9-4.9 4.9zm76.1 33.2c-30 0-54.5-24.4-54.5-54.5 0-30 24.4-54.5 54.5-54.5s54.5 24.4 54.5 54.5-24.5 54.5-54.5 54.5zm0-99c-24.7 0-44.7 20-44.7 44.7s20 44.7 44.7 44.7 44.7-20 44.7-44.7-20.1-44.7-44.7-44.7zm49.5 99.1c-1.3 0-2.5-.5-3.5-1.4l-33.4-33.4c-1.9-1.9-1.9-5 0-6.9s5-1.9 6.9 0l33.4 33.4c1.9 1.9 1.9 5 0 6.9-.8 1-2.1 1.4-3.4 1.4z" fill="url(#SVGID_1_)"/></svg>