<svg clip-rule="evenodd" fill-rule="evenodd" height="512" image-rendering="optimizeQuality" shape-rendering="geometricPrecision" text-rendering="geometricPrecision" viewBox="0 0 1706.66 1706.66" width="512" xmlns="http://www.w3.org/2000/svg" xmlns:xlink="http://www.w3.org/1999/xlink" xmlns:xodm="http://www.corel.com/coreldraw/odm/2003"><linearGradient id="id0" gradientUnits="userSpaceOnUse" x1="156.57" x2="1550.1" y1="853.8" y2="853.8"><stop offset="0" stop-color="#ffb800"/><stop offset="1" stop-color="#ff5329"/></linearGradient><g id="Layer_x0020_1"><path d="m1216.01 1706.66h-725.36c-79.54 0-144.22-64.7-144.22-144.23v-1418.21c0-79.54 64.69-144.22 144.22-144.22h195.25c-45.97 49.95 17.13 183.51 183.18 183.51 166.08 0 229.17-133.57 183.19-183.51h163.74c79.54 0 144.22 64.69 144.22 144.22v1418.22c0 79.53-64.69 144.22-144.22 144.22zm-346.93-1555.85c-159.22 0-192.85-134.47-145.07-134.47h290.15c47.79 0 14.16 134.47-145.08 134.47zm50.66 1453.68h-132.82c-109.2 0-109.18-165.94 0-165.94h132.82c109.22 0 109.19 165.94 0 165.94zm-132.82-126.69c-57.56 0-57.55 87.44 0 87.44l132.82.01c57.61 0 57.6-87.44 0-87.44h-132.82zm-368.57-124.51 869.95-.02v-999.37h-869.95zm148.28-1096.99c-93.68 0-93.67-142.35 0-142.35 93.68 0 93.69 142.35 0 142.35zm0-103.13c-42.04 0-42.04 63.89 0 63.89 42.06 0 42.05-63.89 0-63.89zm509.97 585.35c-46.06 0-34.63-50.48-35.86-79.02-3-69.8-52.54-136.9-119.67-157.88-27.51-8.59-74.26-9.23-68.73-50.7 2.68-20.1 21.09-34.13 41.18-31.49 139.81 18.36 238.37 147.62 219.42 287.3-2.47 18.18-18 31.79-36.33 31.79zm-95.08-12.75c-56.35 0-19.56-61.19-53.31-105.4-35.15-46.04-95.61-22.13-88.62-74.39 10.55-78.82 198.19-.88 178.24 147.98-2.44 18.2-17.96 31.81-36.31 31.81zm-161.55 353.41h-329.17c-48.28 0-48.28-73.33 0-73.33h329.17c48.28 0 48.28 73.33 0 73.33zm127.06 95.83h-456.24c-48.28 0-48.28-73.33 0-73.33h456.24c48.28 0 48.29 73.33 0 73.33zm93.75 95.81h-550c-48.28 0-48.28-73.33 0-73.33h550c48.28 0 48.28 73.33 0 73.33zm-105.5-288.01c-15.68 0-31.94-5.61-47.03-16.22-112.02-78.79-202.68-174.92-269.5-285.69-19.61-32.5-17.61-66.06 5.21-87.59 106.59-100.58 85.06-98.95 192.7 15.2 29.68 31.48-4.17 58.82-20.15 73.9l100.76 106.78c15.18-14.32 45.58-46.96 74.94-15.81 108.48 115.06 110.68 92.42 3.96 193.25-11.2 10.6-25.36 16.2-40.9 16.2z" fill="url(#id0)"/></g></svg>